<svg width="20" height="20" viewBox="0 0 20 20" fill="none" xmlns="http://www.w3.org/2000/svg">
<path d="M10 3L11.5716 7.83688H16.6574L12.5429 10.8262L14.1145 15.6631L10 12.6738L5.8855 15.6631L7.4571 10.8262L3.3426 7.83688H8.4284L10 3Z" fill="#D8C094"/>
<path d="M18 10C18 5.58172 14.4183 2 10 2C5.58172 2 2 5.58172 2 10C2 14.4183 5.58172 18 10 18V20C4.47715 20 0 15.5228 0 10C0 4.47715 4.47715 0 10 0C15.5228 0 20 4.47715 20 10C20 15.5228 15.5228 20 10 20V18C14.4183 18 18 14.4183 18 10Z" fill="#D8C094"/>
</svg>
