<svg width="1002" height="1347" viewBox="0 0 1002 1347" fill="none" xmlns="http://www.w3.org/2000/svg">
<mask id="path-1-outside-1_720_1025" maskUnits="userSpaceOnUse" x="0" y="0" width="1002" height="1347" fill="black">
<rect fill="white" width="1002" height="1347"/>
<path d="M167.184 510.572C167.184 465.18 130.415 428.383 85.058 428.383C39.7013 428.383 2.93237 465.18 2.93237 510.572V639.174H167.184V510.572ZM169.116 641.108H1V510.572C1 464.112 38.634 426.449 85.058 426.449C131.482 426.449 169.116 464.112 169.116 510.572V641.108Z"/>
<path d="M333.367 510.572C333.367 465.18 296.598 428.383 251.242 428.383C205.885 428.383 169.116 465.18 169.116 510.572V639.174H333.367V510.572ZM335.3 641.108H167.184V510.572C167.184 464.112 204.818 426.449 251.242 426.449C297.665 426.449 335.3 464.112 335.3 510.572V641.108Z"/>
<path d="M333.367 297.848C333.367 252.456 296.598 215.659 251.242 215.659C205.885 215.659 169.116 252.456 169.116 297.848V426.449H333.367V297.848ZM335.3 428.383H167.184V297.848C167.184 251.388 204.818 213.725 251.242 213.725C297.665 213.725 335.3 251.388 335.3 297.848V428.383Z"/>
<path d="M333.367 85.1229C333.367 39.7312 296.598 2.93386 251.242 2.93386C205.885 2.93386 169.116 39.7312 169.116 85.1229V213.725H333.367V85.1229ZM335.3 215.659H167.184V85.1229C167.184 38.6631 204.818 1 251.242 1C297.665 1 335.3 38.6631 335.3 85.1229V215.659Z"/>
<path d="M167.184 297.848C167.184 252.456 130.415 215.659 85.058 215.659C39.7013 215.659 2.93237 252.456 2.93237 297.848V426.449H167.184V297.848ZM169.116 428.383H1V297.848C1 251.388 38.634 213.725 85.058 213.725C131.482 213.725 169.116 251.388 169.116 297.848V428.383Z"/>
<path d="M167.184 85.1229C167.184 39.7312 130.415 2.93386 85.058 2.93386C39.7013 2.93386 2.93237 39.7312 2.93237 85.1229V213.725H167.184V85.1229ZM169.116 215.659H1V85.1229C1 38.6631 38.634 1 85.058 1C131.482 1 169.116 38.6631 169.116 85.1229V215.659Z"/>
<path d="M412.594 131.536C412.594 176.927 375.825 213.725 330.469 213.725C285.112 213.725 248.343 176.927 248.343 131.536V2.93386H412.594V131.536ZM414.527 1H246.411V131.536C246.411 177.995 284.045 215.659 330.469 215.659C376.893 215.659 414.527 177.995 414.527 131.536V1Z"/>
<path d="M499.551 577.29C499.551 531.899 462.782 495.101 417.425 495.101C372.068 495.101 335.3 531.899 335.3 577.29V705.892H499.551V577.29ZM501.483 707.826H333.367V577.29C333.367 530.831 371.001 493.168 417.425 493.168C463.849 493.168 501.483 530.831 501.483 577.29V707.826Z"/>
<path d="M499.551 364.566C499.551 319.174 462.782 282.377 417.425 282.377C372.068 282.377 335.3 319.174 335.3 364.566V493.168H499.551V364.566ZM501.483 495.101H333.367V364.566C333.367 318.106 371.001 280.443 417.425 280.443C463.849 280.443 501.483 318.106 501.483 364.566V495.101Z"/>
<path d="M499.551 151.841C499.551 106.449 462.782 69.652 417.425 69.652C372.068 69.652 335.3 106.449 335.3 151.841V280.443H499.551V151.841ZM501.483 282.377H333.367V151.841C333.367 105.381 371.001 67.7182 417.425 67.7182C463.849 67.7182 501.483 105.381 501.483 151.841V282.377Z"/>
<path d="M251.725 556.018C251.725 543.471 241.557 533.295 229.019 533.295C241.557 533.295 251.725 523.12 251.725 510.572C251.725 523.12 261.892 533.295 274.43 533.295C261.881 533.306 251.725 543.471 251.725 556.018Z"/>
<path d="M251.725 343.293C251.725 330.746 241.557 320.57 229.019 320.57C241.557 320.57 251.725 310.395 251.725 297.848C251.725 310.395 261.892 320.57 274.43 320.57C261.881 320.582 251.725 330.746 251.725 343.293Z"/>
<path d="M85.5411 85.1229C85.5411 97.6702 95.7088 107.846 108.246 107.846C95.6975 107.857 85.5411 118.021 85.5411 130.569C85.5411 118.021 75.3733 107.846 62.8358 107.846C75.3733 107.846 85.5411 97.6702 85.5411 85.1229ZM85.5411 94.7101C83.047 100.617 78.3181 105.35 72.4155 107.846C78.3177 110.342 83.0459 115.074 85.5401 120.981C88.034 115.073 92.7638 110.342 98.6704 107.847C92.7662 105.351 88.0357 100.618 85.5411 94.7101Z"/>
<path d="M417.908 410.012C417.908 397.464 407.74 387.289 395.203 387.289C407.74 387.289 417.908 377.113 417.908 364.566C417.908 377.113 428.076 387.289 440.614 387.289C428.065 387.3 417.908 397.464 417.908 410.012Z"/>
<path d="M167.184 1148.75C167.184 1103.35 130.415 1066.56 85.058 1066.56C39.7013 1066.56 2.93237 1103.35 2.93237 1148.75V1277.35H167.184V1148.75ZM169.116 1279.28H1V1148.75C1 1102.29 38.634 1064.62 85.058 1064.62C131.482 1064.62 169.116 1102.29 169.116 1148.75V1279.28Z"/>
<path d="M333.367 1148.75C333.367 1103.35 296.598 1066.56 251.242 1066.56C205.885 1066.56 169.116 1103.35 169.116 1148.75V1277.35H333.367V1148.75ZM335.3 1279.28H167.184V1148.75C167.184 1102.29 204.818 1064.62 251.242 1064.62C297.665 1064.62 335.3 1102.29 335.3 1148.75V1279.28Z"/>
<path d="M333.367 936.022C333.367 890.63 296.598 853.833 251.242 853.833C205.885 853.833 169.116 890.63 169.116 936.022V1064.62H333.367V936.022ZM335.3 1066.56H167.184V936.022C167.184 889.562 204.818 851.899 251.242 851.899C297.665 851.899 335.3 889.562 335.3 936.022V1066.56Z"/>
<path d="M333.367 723.297C333.367 677.905 296.598 641.108 251.242 641.108C205.885 641.108 169.116 677.905 169.116 723.297V851.899H333.367V723.297ZM335.3 853.833H167.184V723.297C167.184 676.837 204.818 639.174 251.242 639.174C297.665 639.174 335.3 676.837 335.3 723.297V853.833Z"/>
<path d="M167.184 936.022C167.184 890.63 130.415 853.833 85.058 853.833C39.7013 853.833 2.93237 890.63 2.93237 936.022V1064.62H167.184V936.022ZM169.116 1066.56H1V936.022C1 889.562 38.634 851.899 85.058 851.899C131.482 851.899 169.116 889.562 169.116 936.022V1066.56Z"/>
<path d="M167.184 723.297C167.184 677.905 130.415 641.108 85.058 641.108C39.7013 641.108 2.93237 677.905 2.93237 723.297V851.899H167.184V723.297ZM169.116 853.833H1V723.297C1 676.837 38.634 639.174 85.058 639.174C131.482 639.174 169.116 676.837 169.116 723.297V853.833Z"/>
<path d="M412.594 769.71C412.594 815.101 375.825 851.899 330.469 851.899C285.112 851.899 248.343 815.101 248.343 769.71V641.108H412.594V769.71ZM414.527 639.174H246.411V769.71C246.411 816.169 284.045 853.833 330.469 853.833C376.893 853.833 414.527 816.169 414.527 769.71V639.174Z"/>
<path d="M499.551 1215.46C499.551 1170.07 462.782 1133.28 417.425 1133.28C372.068 1133.28 335.3 1170.07 335.3 1215.46V1344.07H499.551V1215.46ZM501.483 1346H333.367V1215.46C333.367 1169 371.001 1131.34 417.425 1131.34C463.849 1131.34 501.483 1169 501.483 1215.46V1346Z"/>
<path d="M499.551 1002.74C499.551 957.348 462.782 920.551 417.425 920.551C372.068 920.551 335.3 957.348 335.3 1002.74V1131.34H499.551V1002.74ZM501.483 1133.28H333.367V1002.74C333.367 956.28 371.001 918.617 417.425 918.617C463.849 918.617 501.483 956.28 501.483 1002.74V1133.28Z"/>
<path d="M499.551 790.015C499.551 744.623 462.782 707.826 417.425 707.826C372.068 707.826 335.3 744.623 335.3 790.015V918.617H499.551V790.015ZM501.483 920.551H333.367V790.015C333.367 743.555 371.001 705.892 417.425 705.892C463.849 705.892 501.483 743.555 501.483 790.015V920.551Z"/>
<path d="M251.725 1194.19C251.725 1181.64 241.557 1171.47 229.019 1171.47C241.557 1171.47 251.725 1161.29 251.725 1148.75C251.725 1161.29 261.892 1171.47 274.43 1171.47C261.881 1171.48 251.725 1181.64 251.725 1194.19Z"/>
<path d="M251.725 981.467C251.725 968.92 241.557 958.744 229.019 958.744C241.557 958.744 251.725 948.569 251.725 936.022C251.725 948.569 261.892 958.744 274.43 958.744C261.881 958.756 251.725 968.92 251.725 981.467Z"/>
<path d="M85.5411 723.297C85.5411 735.844 95.7088 746.02 108.246 746.02C95.6975 746.031 85.5411 756.195 85.5411 768.743C85.5411 756.195 75.3733 746.02 62.8358 746.02C75.3733 746.02 85.5411 735.844 85.5411 723.297ZM85.5411 732.884C83.047 738.791 78.3181 743.524 72.4155 746.02C78.3177 748.516 83.0459 753.248 85.5401 759.155C88.034 753.247 92.7638 748.516 98.6704 746.021C92.7662 743.525 88.0357 738.792 85.5411 732.884Z"/>
<path d="M417.908 1048.19C417.908 1035.64 407.74 1025.46 395.203 1025.46C407.74 1025.46 417.908 1015.29 417.908 1002.74C417.908 1015.29 428.076 1025.46 440.614 1025.46C428.065 1025.47 417.908 1035.64 417.908 1048.19Z"/>
<path d="M666.701 510.572C666.701 465.18 629.932 428.383 584.575 428.383C539.218 428.383 502.449 465.18 502.449 510.572V639.174H666.701V510.572ZM668.633 641.108H500.517V510.572C500.517 464.112 538.151 426.449 584.575 426.449C630.999 426.449 668.633 464.112 668.633 510.572V641.108Z"/>
<path d="M832.884 510.572C832.884 465.18 796.115 428.383 750.758 428.383C705.402 428.383 668.633 465.18 668.633 510.572V639.174H832.884V510.572ZM834.816 641.108H666.701V510.572C666.701 464.112 704.335 426.449 750.758 426.449C797.182 426.449 834.816 464.112 834.816 510.572V641.108Z"/>
<path d="M832.884 297.848C832.884 252.456 796.115 215.659 750.758 215.659C705.402 215.659 668.633 252.456 668.633 297.848V426.449H832.884V297.848ZM834.816 428.383H666.701V297.848C666.701 251.388 704.335 213.725 750.758 213.725C797.182 213.725 834.816 251.388 834.816 297.848V428.383Z"/>
<path d="M832.884 85.1229C832.884 39.7312 796.115 2.93386 750.758 2.93386C705.402 2.93386 668.633 39.7312 668.633 85.1229V213.725H832.884V85.1229ZM834.816 215.659H666.701V85.1229C666.701 38.6631 704.335 1 750.758 1C797.182 1 834.816 38.6631 834.816 85.1229V215.659Z"/>
<path d="M666.701 297.848C666.701 252.456 629.932 215.659 584.575 215.659C539.218 215.659 502.449 252.456 502.449 297.848V426.449H666.701V297.848ZM668.633 428.383H500.517V297.848C500.517 251.388 538.151 213.725 584.575 213.725C630.999 213.725 668.633 251.388 668.633 297.848V428.383Z"/>
<path d="M666.701 85.1229C666.701 39.7312 629.932 2.93386 584.575 2.93386C539.218 2.93386 502.449 39.7312 502.449 85.1229V213.725H666.701V85.1229ZM668.633 215.659H500.517V85.1229C500.517 38.6631 538.151 1 584.575 1C630.999 1 668.633 38.6631 668.633 85.1229V215.659Z"/>
<path d="M912.111 131.536C912.111 176.927 875.342 213.725 829.986 213.725C784.629 213.725 747.86 176.927 747.86 131.536V2.93386H912.111V131.536ZM914.044 1H745.928V131.536C745.928 177.995 783.562 215.659 829.986 215.659C876.409 215.659 914.044 177.995 914.044 131.536V1Z"/>
<path d="M999.068 577.29C999.068 531.899 962.299 495.101 916.942 495.101C871.585 495.101 834.816 531.899 834.816 577.29V705.892H999.068V577.29ZM1001 707.826H832.884V577.29C832.884 530.831 870.518 493.168 916.942 493.168C963.366 493.168 1001 530.831 1001 577.29V707.826Z"/>
<path d="M999.068 364.566C999.068 319.174 962.299 282.377 916.942 282.377C871.585 282.377 834.816 319.174 834.816 364.566V493.168H999.068V364.566ZM1001 495.101H832.884V364.566C832.884 318.106 870.518 280.443 916.942 280.443C963.366 280.443 1001 318.106 1001 364.566V495.101Z"/>
<path d="M999.068 151.841C999.068 106.449 962.299 69.652 916.942 69.652C871.585 69.652 834.816 106.449 834.816 151.841V280.443H999.068V151.841ZM1001 282.377H832.884V151.841C832.884 105.381 870.518 67.7182 916.942 67.7182C963.366 67.7182 1001 105.381 1001 151.841V282.377Z"/>
<path d="M751.242 556.018C751.242 543.471 741.074 533.295 728.536 533.295C741.074 533.295 751.242 523.12 751.242 510.572C751.242 523.12 761.409 533.295 773.947 533.295C761.398 533.306 751.242 543.471 751.242 556.018Z"/>
<path d="M751.242 343.293C751.242 330.746 741.074 320.57 728.536 320.57C741.074 320.57 751.242 310.395 751.242 297.848C751.242 310.395 761.409 320.57 773.947 320.57C761.398 320.582 751.242 330.746 751.242 343.293Z"/>
<path d="M585.058 85.1229C585.058 97.6702 595.226 107.846 607.763 107.846C595.214 107.857 585.058 118.021 585.058 130.569C585.058 118.021 574.89 107.846 562.353 107.846C574.89 107.846 585.058 97.6702 585.058 85.1229ZM585.058 94.7101C582.564 100.617 577.835 105.35 571.932 107.846C577.835 110.342 582.563 115.074 585.057 120.981C587.551 115.073 592.281 110.342 598.187 107.847C592.283 105.351 587.553 100.618 585.058 94.7101Z"/>
<path d="M917.425 410.012C917.425 397.464 907.257 387.289 894.72 387.289C907.257 387.289 917.425 377.113 917.425 364.566C917.425 377.113 927.593 387.289 940.13 387.289C927.582 387.3 917.425 397.464 917.425 410.012Z"/>
<path d="M666.701 1148.75C666.701 1103.35 629.932 1066.56 584.575 1066.56C539.218 1066.56 502.449 1103.35 502.449 1148.75V1277.35H666.701V1148.75ZM668.633 1279.28H500.517V1148.75C500.517 1102.29 538.151 1064.62 584.575 1064.62C630.999 1064.62 668.633 1102.29 668.633 1148.75V1279.28Z"/>
<path d="M832.884 1148.75C832.884 1103.35 796.115 1066.56 750.758 1066.56C705.402 1066.56 668.633 1103.35 668.633 1148.75V1277.35H832.884V1148.75ZM834.816 1279.28H666.701V1148.75C666.701 1102.29 704.335 1064.62 750.758 1064.62C797.182 1064.62 834.816 1102.29 834.816 1148.75V1279.28Z"/>
<path d="M832.884 936.022C832.884 890.63 796.115 853.833 750.758 853.833C705.402 853.833 668.633 890.63 668.633 936.022V1064.62H832.884V936.022ZM834.816 1066.56H666.701V936.022C666.701 889.562 704.335 851.899 750.758 851.899C797.182 851.899 834.816 889.562 834.816 936.022V1066.56Z"/>
<path d="M832.884 723.297C832.884 677.905 796.115 641.108 750.758 641.108C705.402 641.108 668.633 677.905 668.633 723.297V851.899H832.884V723.297ZM834.816 853.833H666.701V723.297C666.701 676.837 704.335 639.174 750.758 639.174C797.182 639.174 834.816 676.837 834.816 723.297V853.833Z"/>
<path d="M666.701 936.022C666.701 890.63 629.932 853.833 584.575 853.833C539.218 853.833 502.449 890.63 502.449 936.022V1064.62H666.701V936.022ZM668.633 1066.56H500.517V936.022C500.517 889.562 538.151 851.899 584.575 851.899C630.999 851.899 668.633 889.562 668.633 936.022V1066.56Z"/>
<path d="M666.701 723.297C666.701 677.905 629.932 641.108 584.575 641.108C539.218 641.108 502.449 677.905 502.449 723.297V851.899H666.701V723.297ZM668.633 853.833H500.517V723.297C500.517 676.837 538.151 639.174 584.575 639.174C630.999 639.174 668.633 676.837 668.633 723.297V853.833Z"/>
<path d="M912.111 769.71C912.111 815.101 875.342 851.899 829.986 851.899C784.629 851.899 747.86 815.101 747.86 769.71V641.108H912.111V769.71ZM914.044 639.174H745.928V769.71C745.928 816.169 783.562 853.833 829.986 853.833C876.409 853.833 914.044 816.169 914.044 769.71V639.174Z"/>
<path d="M999.068 1215.46C999.068 1170.07 962.299 1133.28 916.942 1133.28C871.585 1133.28 834.816 1170.07 834.816 1215.46V1344.07H999.068V1215.46ZM1001 1346H832.884V1215.46C832.884 1169 870.518 1131.34 916.942 1131.34C963.366 1131.34 1001 1169 1001 1215.46V1346Z"/>
<path d="M999.068 1002.74C999.068 957.348 962.299 920.551 916.942 920.551C871.585 920.551 834.816 957.348 834.816 1002.74V1131.34H999.068V1002.74ZM1001 1133.28H832.884V1002.74C832.884 956.28 870.518 918.617 916.942 918.617C963.366 918.617 1001 956.28 1001 1002.74V1133.28Z"/>
<path d="M999.068 790.015C999.068 744.623 962.299 707.826 916.942 707.826C871.585 707.826 834.816 744.623 834.816 790.015V918.617H999.068V790.015ZM1001 920.551H832.884V790.015C832.884 743.555 870.518 705.892 916.942 705.892C963.366 705.892 1001 743.555 1001 790.015V920.551Z"/>
<path d="M751.242 1194.19C751.242 1181.64 741.074 1171.47 728.536 1171.47C741.074 1171.47 751.242 1161.29 751.242 1148.75C751.242 1161.29 761.409 1171.47 773.947 1171.47C761.398 1171.48 751.242 1181.64 751.242 1194.19Z"/>
<path d="M751.242 981.467C751.242 968.92 741.074 958.744 728.536 958.744C741.074 958.744 751.242 948.569 751.242 936.022C751.242 948.569 761.409 958.744 773.947 958.744C761.398 958.756 751.242 968.92 751.242 981.467Z"/>
<path d="M585.058 723.297C585.058 735.844 595.226 746.02 607.763 746.02C595.214 746.031 585.058 756.195 585.058 768.743C585.058 756.195 574.89 746.02 562.353 746.02C574.89 746.02 585.058 735.844 585.058 723.297ZM585.058 732.884C582.564 738.791 577.835 743.524 571.932 746.02C577.835 748.516 582.563 753.248 585.057 759.155C587.551 753.247 592.281 748.516 598.187 746.021C592.283 743.525 587.553 738.792 585.058 732.884Z"/>
<path d="M917.425 1048.19C917.425 1035.64 907.257 1025.46 894.72 1025.46C907.257 1025.46 917.425 1015.29 917.425 1002.74C917.425 1015.29 927.593 1025.46 940.13 1025.46C927.582 1025.47 917.425 1035.64 917.425 1048.19Z"/>
</mask>
<path d="M167.184 510.572C167.184 465.18 130.415 428.383 85.058 428.383C39.7013 428.383 2.93237 465.18 2.93237 510.572V639.174H167.184V510.572ZM169.116 641.108H1V510.572C1 464.112 38.634 426.449 85.058 426.449C131.482 426.449 169.116 464.112 169.116 510.572V641.108Z" fill="#FFF1D8"/>
<path d="M333.367 510.572C333.367 465.18 296.598 428.383 251.242 428.383C205.885 428.383 169.116 465.18 169.116 510.572V639.174H333.367V510.572ZM335.3 641.108H167.184V510.572C167.184 464.112 204.818 426.449 251.242 426.449C297.665 426.449 335.3 464.112 335.3 510.572V641.108Z" fill="#FFF1D8"/>
<path d="M333.367 297.848C333.367 252.456 296.598 215.659 251.242 215.659C205.885 215.659 169.116 252.456 169.116 297.848V426.449H333.367V297.848ZM335.3 428.383H167.184V297.848C167.184 251.388 204.818 213.725 251.242 213.725C297.665 213.725 335.3 251.388 335.3 297.848V428.383Z" fill="#FFF1D8"/>
<path d="M333.367 85.1229C333.367 39.7312 296.598 2.93386 251.242 2.93386C205.885 2.93386 169.116 39.7312 169.116 85.1229V213.725H333.367V85.1229ZM335.3 215.659H167.184V85.1229C167.184 38.6631 204.818 1 251.242 1C297.665 1 335.3 38.6631 335.3 85.1229V215.659Z" fill="#FFF1D8"/>
<path d="M167.184 297.848C167.184 252.456 130.415 215.659 85.058 215.659C39.7013 215.659 2.93237 252.456 2.93237 297.848V426.449H167.184V297.848ZM169.116 428.383H1V297.848C1 251.388 38.634 213.725 85.058 213.725C131.482 213.725 169.116 251.388 169.116 297.848V428.383Z" fill="#FFF1D8"/>
<path d="M167.184 85.1229C167.184 39.7312 130.415 2.93386 85.058 2.93386C39.7013 2.93386 2.93237 39.7312 2.93237 85.1229V213.725H167.184V85.1229ZM169.116 215.659H1V85.1229C1 38.6631 38.634 1 85.058 1C131.482 1 169.116 38.6631 169.116 85.1229V215.659Z" fill="#FFF1D8"/>
<path d="M412.594 131.536C412.594 176.927 375.825 213.725 330.469 213.725C285.112 213.725 248.343 176.927 248.343 131.536V2.93386H412.594V131.536ZM414.527 1H246.411V131.536C246.411 177.995 284.045 215.659 330.469 215.659C376.893 215.659 414.527 177.995 414.527 131.536V1Z" fill="#FFF1D8"/>
<path d="M499.551 577.29C499.551 531.899 462.782 495.101 417.425 495.101C372.068 495.101 335.3 531.899 335.3 577.29V705.892H499.551V577.29ZM501.483 707.826H333.367V577.29C333.367 530.831 371.001 493.168 417.425 493.168C463.849 493.168 501.483 530.831 501.483 577.29V707.826Z" fill="#FFF1D8"/>
<path d="M499.551 364.566C499.551 319.174 462.782 282.377 417.425 282.377C372.068 282.377 335.3 319.174 335.3 364.566V493.168H499.551V364.566ZM501.483 495.101H333.367V364.566C333.367 318.106 371.001 280.443 417.425 280.443C463.849 280.443 501.483 318.106 501.483 364.566V495.101Z" fill="#FFF1D8"/>
<path d="M499.551 151.841C499.551 106.449 462.782 69.652 417.425 69.652C372.068 69.652 335.3 106.449 335.3 151.841V280.443H499.551V151.841ZM501.483 282.377H333.367V151.841C333.367 105.381 371.001 67.7182 417.425 67.7182C463.849 67.7182 501.483 105.381 501.483 151.841V282.377Z" fill="#FFF1D8"/>
<path d="M251.725 556.018C251.725 543.471 241.557 533.295 229.019 533.295C241.557 533.295 251.725 523.12 251.725 510.572C251.725 523.12 261.892 533.295 274.43 533.295C261.881 533.306 251.725 543.471 251.725 556.018Z" fill="#FFF1D8"/>
<path d="M251.725 343.293C251.725 330.746 241.557 320.57 229.019 320.57C241.557 320.57 251.725 310.395 251.725 297.848C251.725 310.395 261.892 320.57 274.43 320.57C261.881 320.582 251.725 330.746 251.725 343.293Z" fill="#FFF1D8"/>
<path d="M85.5411 85.1229C85.5411 97.6702 95.7088 107.846 108.246 107.846C95.6975 107.857 85.5411 118.021 85.5411 130.569C85.5411 118.021 75.3733 107.846 62.8358 107.846C75.3733 107.846 85.5411 97.6702 85.5411 85.1229ZM85.5411 94.7101C83.047 100.617 78.3181 105.35 72.4155 107.846C78.3177 110.342 83.0459 115.074 85.5401 120.981C88.034 115.073 92.7638 110.342 98.6704 107.847C92.7662 105.351 88.0357 100.618 85.5411 94.7101Z" fill="#FFF1D8"/>
<path d="M417.908 410.012C417.908 397.464 407.74 387.289 395.203 387.289C407.74 387.289 417.908 377.113 417.908 364.566C417.908 377.113 428.076 387.289 440.614 387.289C428.065 387.3 417.908 397.464 417.908 410.012Z" fill="#FFF1D8"/>
<path d="M167.184 1148.75C167.184 1103.35 130.415 1066.56 85.058 1066.56C39.7013 1066.56 2.93237 1103.35 2.93237 1148.75V1277.35H167.184V1148.75ZM169.116 1279.28H1V1148.75C1 1102.29 38.634 1064.62 85.058 1064.62C131.482 1064.62 169.116 1102.29 169.116 1148.75V1279.28Z" fill="#FFF1D8"/>
<path d="M333.367 1148.75C333.367 1103.35 296.598 1066.56 251.242 1066.56C205.885 1066.56 169.116 1103.35 169.116 1148.75V1277.35H333.367V1148.75ZM335.3 1279.28H167.184V1148.75C167.184 1102.29 204.818 1064.62 251.242 1064.62C297.665 1064.62 335.3 1102.29 335.3 1148.75V1279.28Z" fill="#FFF1D8"/>
<path d="M333.367 936.022C333.367 890.63 296.598 853.833 251.242 853.833C205.885 853.833 169.116 890.63 169.116 936.022V1064.62H333.367V936.022ZM335.3 1066.56H167.184V936.022C167.184 889.562 204.818 851.899 251.242 851.899C297.665 851.899 335.3 889.562 335.3 936.022V1066.56Z" fill="#FFF1D8"/>
<path d="M333.367 723.297C333.367 677.905 296.598 641.108 251.242 641.108C205.885 641.108 169.116 677.905 169.116 723.297V851.899H333.367V723.297ZM335.3 853.833H167.184V723.297C167.184 676.837 204.818 639.174 251.242 639.174C297.665 639.174 335.3 676.837 335.3 723.297V853.833Z" fill="#FFF1D8"/>
<path d="M167.184 936.022C167.184 890.63 130.415 853.833 85.058 853.833C39.7013 853.833 2.93237 890.63 2.93237 936.022V1064.62H167.184V936.022ZM169.116 1066.56H1V936.022C1 889.562 38.634 851.899 85.058 851.899C131.482 851.899 169.116 889.562 169.116 936.022V1066.56Z" fill="#FFF1D8"/>
<path d="M167.184 723.297C167.184 677.905 130.415 641.108 85.058 641.108C39.7013 641.108 2.93237 677.905 2.93237 723.297V851.899H167.184V723.297ZM169.116 853.833H1V723.297C1 676.837 38.634 639.174 85.058 639.174C131.482 639.174 169.116 676.837 169.116 723.297V853.833Z" fill="#FFF1D8"/>
<path d="M412.594 769.71C412.594 815.101 375.825 851.899 330.469 851.899C285.112 851.899 248.343 815.101 248.343 769.71V641.108H412.594V769.71ZM414.527 639.174H246.411V769.71C246.411 816.169 284.045 853.833 330.469 853.833C376.893 853.833 414.527 816.169 414.527 769.71V639.174Z" fill="#FFF1D8"/>
<path d="M499.551 1215.46C499.551 1170.07 462.782 1133.28 417.425 1133.28C372.068 1133.28 335.3 1170.07 335.3 1215.46V1344.07H499.551V1215.46ZM501.483 1346H333.367V1215.46C333.367 1169 371.001 1131.34 417.425 1131.34C463.849 1131.34 501.483 1169 501.483 1215.46V1346Z" fill="#FFF1D8"/>
<path d="M499.551 1002.74C499.551 957.348 462.782 920.551 417.425 920.551C372.068 920.551 335.3 957.348 335.3 1002.74V1131.34H499.551V1002.74ZM501.483 1133.28H333.367V1002.74C333.367 956.28 371.001 918.617 417.425 918.617C463.849 918.617 501.483 956.28 501.483 1002.74V1133.28Z" fill="#FFF1D8"/>
<path d="M499.551 790.015C499.551 744.623 462.782 707.826 417.425 707.826C372.068 707.826 335.3 744.623 335.3 790.015V918.617H499.551V790.015ZM501.483 920.551H333.367V790.015C333.367 743.555 371.001 705.892 417.425 705.892C463.849 705.892 501.483 743.555 501.483 790.015V920.551Z" fill="#FFF1D8"/>
<path d="M251.725 1194.19C251.725 1181.64 241.557 1171.47 229.019 1171.47C241.557 1171.47 251.725 1161.29 251.725 1148.75C251.725 1161.29 261.892 1171.47 274.43 1171.47C261.881 1171.48 251.725 1181.64 251.725 1194.19Z" fill="#FFF1D8"/>
<path d="M251.725 981.467C251.725 968.92 241.557 958.744 229.019 958.744C241.557 958.744 251.725 948.569 251.725 936.022C251.725 948.569 261.892 958.744 274.43 958.744C261.881 958.756 251.725 968.92 251.725 981.467Z" fill="#FFF1D8"/>
<path d="M85.5411 723.297C85.5411 735.844 95.7088 746.02 108.246 746.02C95.6975 746.031 85.5411 756.195 85.5411 768.743C85.5411 756.195 75.3733 746.02 62.8358 746.02C75.3733 746.02 85.5411 735.844 85.5411 723.297ZM85.5411 732.884C83.047 738.791 78.3181 743.524 72.4155 746.02C78.3177 748.516 83.0459 753.248 85.5401 759.155C88.034 753.247 92.7638 748.516 98.6704 746.021C92.7662 743.525 88.0357 738.792 85.5411 732.884Z" fill="#FFF1D8"/>
<path d="M417.908 1048.19C417.908 1035.64 407.74 1025.46 395.203 1025.46C407.74 1025.46 417.908 1015.29 417.908 1002.74C417.908 1015.29 428.076 1025.46 440.614 1025.46C428.065 1025.47 417.908 1035.64 417.908 1048.19Z" fill="#FFF1D8"/>
<path d="M666.701 510.572C666.701 465.18 629.932 428.383 584.575 428.383C539.218 428.383 502.449 465.18 502.449 510.572V639.174H666.701V510.572ZM668.633 641.108H500.517V510.572C500.517 464.112 538.151 426.449 584.575 426.449C630.999 426.449 668.633 464.112 668.633 510.572V641.108Z" fill="#FFF1D8"/>
<path d="M832.884 510.572C832.884 465.18 796.115 428.383 750.758 428.383C705.402 428.383 668.633 465.18 668.633 510.572V639.174H832.884V510.572ZM834.816 641.108H666.701V510.572C666.701 464.112 704.335 426.449 750.758 426.449C797.182 426.449 834.816 464.112 834.816 510.572V641.108Z" fill="#FFF1D8"/>
<path d="M832.884 297.848C832.884 252.456 796.115 215.659 750.758 215.659C705.402 215.659 668.633 252.456 668.633 297.848V426.449H832.884V297.848ZM834.816 428.383H666.701V297.848C666.701 251.388 704.335 213.725 750.758 213.725C797.182 213.725 834.816 251.388 834.816 297.848V428.383Z" fill="#FFF1D8"/>
<path d="M832.884 85.1229C832.884 39.7312 796.115 2.93386 750.758 2.93386C705.402 2.93386 668.633 39.7312 668.633 85.1229V213.725H832.884V85.1229ZM834.816 215.659H666.701V85.1229C666.701 38.6631 704.335 1 750.758 1C797.182 1 834.816 38.6631 834.816 85.1229V215.659Z" fill="#FFF1D8"/>
<path d="M666.701 297.848C666.701 252.456 629.932 215.659 584.575 215.659C539.218 215.659 502.449 252.456 502.449 297.848V426.449H666.701V297.848ZM668.633 428.383H500.517V297.848C500.517 251.388 538.151 213.725 584.575 213.725C630.999 213.725 668.633 251.388 668.633 297.848V428.383Z" fill="#FFF1D8"/>
<path d="M666.701 85.1229C666.701 39.7312 629.932 2.93386 584.575 2.93386C539.218 2.93386 502.449 39.7312 502.449 85.1229V213.725H666.701V85.1229ZM668.633 215.659H500.517V85.1229C500.517 38.6631 538.151 1 584.575 1C630.999 1 668.633 38.6631 668.633 85.1229V215.659Z" fill="#FFF1D8"/>
<path d="M912.111 131.536C912.111 176.927 875.342 213.725 829.986 213.725C784.629 213.725 747.86 176.927 747.86 131.536V2.93386H912.111V131.536ZM914.044 1H745.928V131.536C745.928 177.995 783.562 215.659 829.986 215.659C876.409 215.659 914.044 177.995 914.044 131.536V1Z" fill="#FFF1D8"/>
<path d="M999.068 577.29C999.068 531.899 962.299 495.101 916.942 495.101C871.585 495.101 834.816 531.899 834.816 577.29V705.892H999.068V577.29ZM1001 707.826H832.884V577.29C832.884 530.831 870.518 493.168 916.942 493.168C963.366 493.168 1001 530.831 1001 577.29V707.826Z" fill="#FFF1D8"/>
<path d="M999.068 364.566C999.068 319.174 962.299 282.377 916.942 282.377C871.585 282.377 834.816 319.174 834.816 364.566V493.168H999.068V364.566ZM1001 495.101H832.884V364.566C832.884 318.106 870.518 280.443 916.942 280.443C963.366 280.443 1001 318.106 1001 364.566V495.101Z" fill="#FFF1D8"/>
<path d="M999.068 151.841C999.068 106.449 962.299 69.652 916.942 69.652C871.585 69.652 834.816 106.449 834.816 151.841V280.443H999.068V151.841ZM1001 282.377H832.884V151.841C832.884 105.381 870.518 67.7182 916.942 67.7182C963.366 67.7182 1001 105.381 1001 151.841V282.377Z" fill="#FFF1D8"/>
<path d="M751.242 556.018C751.242 543.471 741.074 533.295 728.536 533.295C741.074 533.295 751.242 523.12 751.242 510.572C751.242 523.12 761.409 533.295 773.947 533.295C761.398 533.306 751.242 543.471 751.242 556.018Z" fill="#FFF1D8"/>
<path d="M751.242 343.293C751.242 330.746 741.074 320.57 728.536 320.57C741.074 320.57 751.242 310.395 751.242 297.848C751.242 310.395 761.409 320.57 773.947 320.57C761.398 320.582 751.242 330.746 751.242 343.293Z" fill="#FFF1D8"/>
<path d="M585.058 85.1229C585.058 97.6702 595.226 107.846 607.763 107.846C595.214 107.857 585.058 118.021 585.058 130.569C585.058 118.021 574.89 107.846 562.353 107.846C574.89 107.846 585.058 97.6702 585.058 85.1229ZM585.058 94.7101C582.564 100.617 577.835 105.35 571.932 107.846C577.835 110.342 582.563 115.074 585.057 120.981C587.551 115.073 592.281 110.342 598.187 107.847C592.283 105.351 587.553 100.618 585.058 94.7101Z" fill="#FFF1D8"/>
<path d="M917.425 410.012C917.425 397.464 907.257 387.289 894.72 387.289C907.257 387.289 917.425 377.113 917.425 364.566C917.425 377.113 927.593 387.289 940.13 387.289C927.582 387.3 917.425 397.464 917.425 410.012Z" fill="#FFF1D8"/>
<path d="M666.701 1148.75C666.701 1103.35 629.932 1066.56 584.575 1066.56C539.218 1066.56 502.449 1103.35 502.449 1148.75V1277.35H666.701V1148.75ZM668.633 1279.28H500.517V1148.75C500.517 1102.29 538.151 1064.62 584.575 1064.62C630.999 1064.62 668.633 1102.29 668.633 1148.75V1279.28Z" fill="#FFF1D8"/>
<path d="M832.884 1148.75C832.884 1103.35 796.115 1066.56 750.758 1066.56C705.402 1066.56 668.633 1103.35 668.633 1148.75V1277.35H832.884V1148.75ZM834.816 1279.28H666.701V1148.75C666.701 1102.29 704.335 1064.62 750.758 1064.62C797.182 1064.62 834.816 1102.29 834.816 1148.75V1279.28Z" fill="#FFF1D8"/>
<path d="M832.884 936.022C832.884 890.63 796.115 853.833 750.758 853.833C705.402 853.833 668.633 890.63 668.633 936.022V1064.62H832.884V936.022ZM834.816 1066.56H666.701V936.022C666.701 889.562 704.335 851.899 750.758 851.899C797.182 851.899 834.816 889.562 834.816 936.022V1066.56Z" fill="#FFF1D8"/>
<path d="M832.884 723.297C832.884 677.905 796.115 641.108 750.758 641.108C705.402 641.108 668.633 677.905 668.633 723.297V851.899H832.884V723.297ZM834.816 853.833H666.701V723.297C666.701 676.837 704.335 639.174 750.758 639.174C797.182 639.174 834.816 676.837 834.816 723.297V853.833Z" fill="#FFF1D8"/>
<path d="M666.701 936.022C666.701 890.63 629.932 853.833 584.575 853.833C539.218 853.833 502.449 890.63 502.449 936.022V1064.62H666.701V936.022ZM668.633 1066.56H500.517V936.022C500.517 889.562 538.151 851.899 584.575 851.899C630.999 851.899 668.633 889.562 668.633 936.022V1066.56Z" fill="#FFF1D8"/>
<path d="M666.701 723.297C666.701 677.905 629.932 641.108 584.575 641.108C539.218 641.108 502.449 677.905 502.449 723.297V851.899H666.701V723.297ZM668.633 853.833H500.517V723.297C500.517 676.837 538.151 639.174 584.575 639.174C630.999 639.174 668.633 676.837 668.633 723.297V853.833Z" fill="#FFF1D8"/>
<path d="M912.111 769.71C912.111 815.101 875.342 851.899 829.986 851.899C784.629 851.899 747.86 815.101 747.86 769.71V641.108H912.111V769.71ZM914.044 639.174H745.928V769.71C745.928 816.169 783.562 853.833 829.986 853.833C876.409 853.833 914.044 816.169 914.044 769.71V639.174Z" fill="#FFF1D8"/>
<path d="M999.068 1215.46C999.068 1170.07 962.299 1133.28 916.942 1133.28C871.585 1133.28 834.816 1170.07 834.816 1215.46V1344.07H999.068V1215.46ZM1001 1346H832.884V1215.46C832.884 1169 870.518 1131.34 916.942 1131.34C963.366 1131.34 1001 1169 1001 1215.46V1346Z" fill="#FFF1D8"/>
<path d="M999.068 1002.74C999.068 957.348 962.299 920.551 916.942 920.551C871.585 920.551 834.816 957.348 834.816 1002.74V1131.34H999.068V1002.74ZM1001 1133.28H832.884V1002.74C832.884 956.28 870.518 918.617 916.942 918.617C963.366 918.617 1001 956.28 1001 1002.74V1133.28Z" fill="#FFF1D8"/>
<path d="M999.068 790.015C999.068 744.623 962.299 707.826 916.942 707.826C871.585 707.826 834.816 744.623 834.816 790.015V918.617H999.068V790.015ZM1001 920.551H832.884V790.015C832.884 743.555 870.518 705.892 916.942 705.892C963.366 705.892 1001 743.555 1001 790.015V920.551Z" fill="#FFF1D8"/>
<path d="M751.242 1194.19C751.242 1181.64 741.074 1171.47 728.536 1171.47C741.074 1171.47 751.242 1161.29 751.242 1148.75C751.242 1161.29 761.409 1171.47 773.947 1171.47C761.398 1171.48 751.242 1181.64 751.242 1194.19Z" fill="#FFF1D8"/>
<path d="M751.242 981.467C751.242 968.92 741.074 958.744 728.536 958.744C741.074 958.744 751.242 948.569 751.242 936.022C751.242 948.569 761.409 958.744 773.947 958.744C761.398 958.756 751.242 968.92 751.242 981.467Z" fill="#FFF1D8"/>
<path d="M585.058 723.297C585.058 735.844 595.226 746.02 607.763 746.02C595.214 746.031 585.058 756.195 585.058 768.743C585.058 756.195 574.89 746.02 562.353 746.02C574.89 746.02 585.058 735.844 585.058 723.297ZM585.058 732.884C582.564 738.791 577.835 743.524 571.932 746.02C577.835 748.516 582.563 753.248 585.057 759.155C587.551 753.247 592.281 748.516 598.187 746.021C592.283 743.525 587.553 738.792 585.058 732.884Z" fill="#FFF1D8"/>
<path d="M917.425 1048.19C917.425 1035.64 907.257 1025.46 894.72 1025.46C907.257 1025.46 917.425 1015.29 917.425 1002.74C917.425 1015.29 927.593 1025.46 940.13 1025.46C927.582 1025.47 917.425 1035.64 917.425 1048.19Z" fill="#FFF1D8"/>
<path d="M2.93237 639.174H1.93237V640.174H2.93237V639.174ZM167.184 639.174V640.174H168.184V639.174H167.184ZM169.116 641.108V642.108H170.116V641.108H169.116ZM1 641.108H0V642.108H1V641.108ZM169.116 639.174H168.116V640.174H169.116V639.174ZM333.367 639.174V640.174H334.367V639.174H333.367ZM335.3 641.108V642.108H336.3V641.108H335.3ZM167.184 641.108H166.184V642.108H167.184V641.108ZM169.116 426.449H168.116V427.449H169.116V426.449ZM333.367 426.449V427.449H334.367V426.449H333.367ZM335.3 428.383V429.383H336.3V428.383H335.3ZM167.184 428.383H166.184V429.383H167.184V428.383ZM169.116 213.725H168.116V214.725H169.116V213.725ZM333.367 213.725V214.725H334.367V213.725H333.367ZM335.3 215.659V216.659H336.3V215.659H335.3ZM167.184 215.659H166.184V216.659H167.184V215.659ZM2.93237 426.449H1.93237V427.449H2.93237V426.449ZM167.184 426.449V427.449H168.184V426.449H167.184ZM169.116 428.383V429.383H170.116V428.383H169.116ZM1 428.383H0V429.383H1V428.383ZM2.93237 213.725H1.93237V214.725H2.93237V213.725ZM167.184 213.725V214.725H168.184V213.725H167.184ZM169.116 215.659V216.659H170.116V215.659H169.116ZM1 215.659H0V216.659H1V215.659ZM248.343 2.93386V1.93386H247.343V2.93386H248.343ZM412.594 2.93386H413.594V1.93386H412.594V2.93386ZM414.527 1H415.527V0H414.527V1ZM246.411 1V0H245.411V1H246.411ZM335.3 705.892H334.3V706.892H335.3V705.892ZM499.551 705.892V706.892H500.551V705.892H499.551ZM501.483 707.826V708.826H502.483V707.826H501.483ZM333.367 707.826H332.367V708.826H333.367V707.826ZM335.3 493.168H334.3V494.168H335.3V493.168ZM499.551 493.168V494.168H500.551V493.168H499.551ZM501.483 495.101V496.101H502.483V495.101H501.483ZM333.367 495.101H332.367V496.101H333.367V495.101ZM335.3 280.443H334.3V281.443H335.3V280.443ZM499.551 280.443V281.443H500.551V280.443H499.551ZM501.483 282.377V283.377H502.483V282.377H501.483ZM333.367 282.377H332.367V283.377H333.367V282.377ZM274.43 533.295L274.431 534.295L274.43 532.295V533.295ZM274.43 320.57L274.431 321.57L274.43 319.57V320.57ZM108.246 107.846L108.247 108.846L108.246 106.846V107.846ZM85.5411 94.7101L86.4623 94.3211L85.5411 92.1392L84.6198 94.3211L85.5411 94.7101ZM72.4155 107.846L72.026 106.925L69.848 107.846L72.026 108.767L72.4155 107.846ZM85.5401 120.981L84.6189 121.37L85.5402 123.551L86.4614 121.369L85.5401 120.981ZM98.6704 107.847L99.0596 108.768L101.239 107.847L99.0597 106.926L98.6704 107.847ZM440.614 387.289L440.614 388.289L440.614 386.289V387.289ZM2.93237 1277.35H1.93237V1278.35H2.93237V1277.35ZM167.184 1277.35V1278.35H168.184V1277.35H167.184ZM169.116 1279.28V1280.28H170.116V1279.28H169.116ZM1 1279.28H0V1280.28H1V1279.28ZM169.116 1277.35H168.116V1278.35H169.116V1277.35ZM333.367 1277.35V1278.35H334.367V1277.35H333.367ZM335.3 1279.28V1280.28H336.3V1279.28H335.3ZM167.184 1279.28H166.184V1280.28H167.184V1279.28ZM169.116 1064.62H168.116V1065.62H169.116V1064.62ZM333.367 1064.62V1065.62H334.367V1064.62H333.367ZM335.3 1066.56V1067.56H336.3V1066.56H335.3ZM167.184 1066.56H166.184V1067.56H167.184V1066.56ZM169.116 851.899H168.116V852.899H169.116V851.899ZM333.367 851.899V852.899H334.367V851.899H333.367ZM335.3 853.833V854.833H336.3V853.833H335.3ZM167.184 853.833H166.184V854.833H167.184V853.833ZM2.93237 1064.62H1.93237V1065.62H2.93237V1064.62ZM167.184 1064.62V1065.62H168.184V1064.62H167.184ZM169.116 1066.56V1067.56H170.116V1066.56H169.116ZM1 1066.56H0V1067.56H1V1066.56ZM2.93237 851.899H1.93237V852.899H2.93237V851.899ZM167.184 851.899V852.899H168.184V851.899H167.184ZM169.116 853.833V854.833H170.116V853.833H169.116ZM1 853.833H0V854.833H1V853.833ZM248.343 641.108V640.108H247.343V641.108H248.343ZM412.594 641.108H413.594V640.108H412.594V641.108ZM414.527 639.174H415.527V638.174H414.527V639.174ZM246.411 639.174V638.174H245.411V639.174H246.411ZM335.3 1344.07H334.3V1345.07H335.3V1344.07ZM499.551 1344.07V1345.07H500.551V1344.07H499.551ZM501.483 1346V1347H502.483V1346H501.483ZM333.367 1346H332.367V1347H333.367V1346ZM335.3 1131.34H334.3V1132.34H335.3V1131.34ZM499.551 1131.34V1132.34H500.551V1131.34H499.551ZM501.483 1133.28V1134.28H502.483V1133.28H501.483ZM333.367 1133.28H332.367V1134.28H333.367V1133.28ZM335.3 918.617H334.3V919.617H335.3V918.617ZM499.551 918.617V919.617H500.551V918.617H499.551ZM501.483 920.551V921.551H502.483V920.551H501.483ZM333.367 920.551H332.367V921.551H333.367V920.551ZM274.43 1171.47L274.431 1172.47L274.43 1170.47V1171.47ZM274.43 958.744L274.431 959.744L274.43 957.744V958.744ZM108.246 746.02L108.247 747.02L108.246 745.02V746.02ZM85.5411 732.884L86.4623 732.495L85.5411 730.313L84.6198 732.495L85.5411 732.884ZM72.4155 746.02L72.026 745.099L69.848 746.02L72.026 746.941L72.4155 746.02ZM85.5401 759.155L84.6189 759.544L85.5402 761.725L86.4614 759.543L85.5401 759.155ZM98.6704 746.021L99.0596 746.942L101.239 746.021L99.0597 745.1L98.6704 746.021ZM440.614 1025.46L440.614 1026.46L440.614 1024.46V1025.46ZM502.449 639.174H501.449V640.174H502.449V639.174ZM666.701 639.174V640.174H667.701V639.174H666.701ZM668.633 641.108V642.108H669.633V641.108H668.633ZM500.517 641.108H499.517V642.108H500.517V641.108ZM668.633 639.174H667.633V640.174H668.633V639.174ZM832.884 639.174V640.174H833.884V639.174H832.884ZM834.816 641.108V642.108H835.816V641.108H834.816ZM666.701 641.108H665.701V642.108H666.701V641.108ZM668.633 426.449H667.633V427.449H668.633V426.449ZM832.884 426.449V427.449H833.884V426.449H832.884ZM834.816 428.383V429.383H835.816V428.383H834.816ZM666.701 428.383H665.701V429.383H666.701V428.383ZM668.633 213.725H667.633V214.725H668.633V213.725ZM832.884 213.725V214.725H833.884V213.725H832.884ZM834.816 215.659V216.659H835.816V215.659H834.816ZM666.701 215.659H665.701V216.659H666.701V215.659ZM502.449 426.449H501.449V427.449H502.449V426.449ZM666.701 426.449V427.449H667.701V426.449H666.701ZM668.633 428.383V429.383H669.633V428.383H668.633ZM500.517 428.383H499.517V429.383H500.517V428.383ZM502.449 213.725H501.449V214.725H502.449V213.725ZM666.701 213.725V214.725H667.701V213.725H666.701ZM668.633 215.659V216.659H669.633V215.659H668.633ZM500.517 215.659H499.517V216.659H500.517V215.659ZM747.86 2.93386V1.93386H746.86V2.93386H747.86ZM912.111 2.93386H913.111V1.93386H912.111V2.93386ZM914.044 1H915.044V0H914.044V1ZM745.928 1V0H744.928V1H745.928ZM834.816 705.892H833.816V706.892H834.816V705.892ZM999.068 705.892V706.892H1000.07V705.892H999.068ZM1001 707.826V708.826H1002V707.826H1001ZM832.884 707.826H831.884V708.826H832.884V707.826ZM834.816 493.168H833.816V494.168H834.816V493.168ZM999.068 493.168V494.168H1000.07V493.168H999.068ZM1001 495.101V496.101H1002V495.101H1001ZM832.884 495.101H831.884V496.101H832.884V495.101ZM834.816 280.443H833.816V281.443H834.816V280.443ZM999.068 280.443V281.443H1000.07V280.443H999.068ZM1001 282.377V283.377H1002V282.377H1001ZM832.884 282.377H831.884V283.377H832.884V282.377ZM773.947 533.295L773.948 534.295L773.947 532.295V533.295ZM773.947 320.57L773.948 321.57L773.947 319.57V320.57ZM607.763 107.846L607.764 108.846L607.763 106.846V107.846ZM585.058 94.7101L585.979 94.3211L585.058 92.1392L584.137 94.3211L585.058 94.7101ZM571.932 107.846L571.543 106.925L569.365 107.846L571.543 108.767L571.932 107.846ZM585.057 120.981L584.136 121.37L585.057 123.551L585.978 121.369L585.057 120.981ZM598.187 107.847L598.577 108.768L600.756 107.847L598.577 106.926L598.187 107.847ZM940.13 387.289L940.131 388.289L940.13 386.289V387.289ZM502.449 1277.35H501.449V1278.35H502.449V1277.35ZM666.701 1277.35V1278.35H667.701V1277.35H666.701ZM668.633 1279.28V1280.28H669.633V1279.28H668.633ZM500.517 1279.28H499.517V1280.28H500.517V1279.28ZM668.633 1277.35H667.633V1278.35H668.633V1277.35ZM832.884 1277.35V1278.35H833.884V1277.35H832.884ZM834.816 1279.28V1280.28H835.816V1279.28H834.816ZM666.701 1279.28H665.701V1280.28H666.701V1279.28ZM668.633 1064.62H667.633V1065.62H668.633V1064.62ZM832.884 1064.62V1065.62H833.884V1064.62H832.884ZM834.816 1066.56V1067.56H835.816V1066.56H834.816ZM666.701 1066.56H665.701V1067.56H666.701V1066.56ZM668.633 851.899H667.633V852.899H668.633V851.899ZM832.884 851.899V852.899H833.884V851.899H832.884ZM834.816 853.833V854.833H835.816V853.833H834.816ZM666.701 853.833H665.701V854.833H666.701V853.833ZM502.449 1064.62H501.449V1065.62H502.449V1064.62ZM666.701 1064.62V1065.62H667.701V1064.62H666.701ZM668.633 1066.56V1067.56H669.633V1066.56H668.633ZM500.517 1066.56H499.517V1067.56H500.517V1066.56ZM502.449 851.899H501.449V852.899H502.449V851.899ZM666.701 851.899V852.899H667.701V851.899H666.701ZM668.633 853.833V854.833H669.633V853.833H668.633ZM500.517 853.833H499.517V854.833H500.517V853.833ZM747.86 641.108V640.108H746.86V641.108H747.86ZM912.111 641.108H913.111V640.108H912.111V641.108ZM914.044 639.174H915.044V638.174H914.044V639.174ZM745.928 639.174V638.174H744.928V639.174H745.928ZM834.816 1344.07H833.816V1345.07H834.816V1344.07ZM999.068 1344.07V1345.07H1000.07V1344.07H999.068ZM1001 1346V1347H1002V1346H1001ZM832.884 1346H831.884V1347H832.884V1346ZM834.816 1131.34H833.816V1132.34H834.816V1131.34ZM999.068 1131.34V1132.34H1000.07V1131.34H999.068ZM1001 1133.28V1134.28H1002V1133.28H1001ZM832.884 1133.28H831.884V1134.28H832.884V1133.28ZM834.816 918.617H833.816V919.617H834.816V918.617ZM999.068 918.617V919.617H1000.07V918.617H999.068ZM1001 920.551V921.551H1002V920.551H1001ZM832.884 920.551H831.884V921.551H832.884V920.551ZM773.947 1171.47L773.948 1172.47L773.947 1170.47V1171.47ZM773.947 958.744L773.948 959.744L773.947 957.744V958.744ZM607.763 746.02L607.764 747.02L607.763 745.02V746.02ZM585.058 732.884L585.979 732.495L585.058 730.313L584.137 732.495L585.058 732.884ZM571.932 746.02L571.543 745.099L569.365 746.02L571.543 746.941L571.932 746.02ZM585.057 759.155L584.136 759.544L585.057 761.725L585.978 759.543L585.057 759.155ZM598.187 746.021L598.577 746.942L600.756 746.021L598.577 745.1L598.187 746.021ZM940.13 1025.46L940.131 1026.46L940.13 1024.46V1025.46ZM167.184 510.572H168.184C168.184 464.629 130.968 427.383 85.058 427.383V428.383V429.383C129.862 429.383 166.184 465.732 166.184 510.572H167.184ZM85.058 428.383V427.383C39.1482 427.383 1.93237 464.629 1.93237 510.572H2.93237H3.93237C3.93237 465.732 40.2543 429.383 85.058 429.383V428.383ZM2.93237 510.572H1.93237V639.174H2.93237H3.93237V510.572H2.93237ZM2.93237 639.174V640.174H167.184V639.174V638.174H2.93237V639.174ZM167.184 639.174H168.184V510.572H167.184H166.184V639.174H167.184ZM169.116 641.108V640.108H1V641.108V642.108H169.116V641.108ZM1 641.108H2V510.572H1H0V641.108H1ZM1 510.572H2C2 464.664 39.1871 427.449 85.058 427.449V426.449V425.449C38.081 425.449 0 463.561 0 510.572H1ZM85.058 426.449V427.449C130.929 427.449 168.116 464.664 168.116 510.572H169.116H170.116C170.116 463.561 132.035 425.449 85.058 425.449V426.449ZM169.116 510.572H168.116V641.108H169.116H170.116V510.572H169.116ZM333.367 510.572H334.367C334.367 464.629 297.151 427.383 251.242 427.383V428.383V429.383C296.045 429.383 332.367 465.732 332.367 510.572H333.367ZM251.242 428.383V427.383C205.332 427.383 168.116 464.629 168.116 510.572H169.116H170.116C170.116 465.732 206.438 429.383 251.242 429.383V428.383ZM169.116 510.572H168.116V639.174H169.116H170.116V510.572H169.116ZM169.116 639.174V640.174H333.367V639.174V638.174H169.116V639.174ZM333.367 639.174H334.367V510.572H333.367H332.367V639.174H333.367ZM335.3 641.108V640.108H167.184V641.108V642.108H335.3V641.108ZM167.184 641.108H168.184V510.572H167.184H166.184V641.108H167.184ZM167.184 510.572H168.184C168.184 464.664 205.371 427.449 251.242 427.449V426.449V425.449C204.265 425.449 166.184 463.561 166.184 510.572H167.184ZM251.242 426.449V427.449C297.112 427.449 334.3 464.664 334.3 510.572H335.3H336.3C336.3 463.561 298.219 425.449 251.242 425.449V426.449ZM335.3 510.572H334.3V641.108H335.3H336.3V510.572H335.3ZM333.367 297.848H334.367C334.367 251.904 297.151 214.659 251.242 214.659V215.659V216.659C296.045 216.659 332.367 253.007 332.367 297.848H333.367ZM251.242 215.659V214.659C205.332 214.659 168.116 251.904 168.116 297.848H169.116H170.116C170.116 253.007 206.438 216.659 251.242 216.659V215.659ZM169.116 297.848H168.116V426.449H169.116H170.116V297.848H169.116ZM169.116 426.449V427.449H333.367V426.449V425.449H169.116V426.449ZM333.367 426.449H334.367V297.848H333.367H332.367V426.449H333.367ZM335.3 428.383V427.383H167.184V428.383V429.383H335.3V428.383ZM167.184 428.383H168.184V297.848H167.184H166.184V428.383H167.184ZM167.184 297.848H168.184C168.184 251.939 205.371 214.725 251.242 214.725V213.725V212.725C204.265 212.725 166.184 250.836 166.184 297.848H167.184ZM251.242 213.725V214.725C297.112 214.725 334.3 251.939 334.3 297.848H335.3H336.3C336.3 250.836 298.219 212.725 251.242 212.725V213.725ZM335.3 297.848H334.3V428.383H335.3H336.3V297.848H335.3ZM333.367 85.1229H334.367C334.367 39.1796 297.151 1.93386 251.242 1.93386V2.93386V3.93386C296.045 3.93386 332.367 40.2827 332.367 85.1229H333.367ZM251.242 2.93386V1.93386C205.332 1.93386 168.116 39.1796 168.116 85.1229H169.116H170.116C170.116 40.2827 206.438 3.93386 251.242 3.93386V2.93386ZM169.116 85.1229H168.116V213.725H169.116H170.116V85.1229H169.116ZM169.116 213.725V214.725H333.367V213.725V212.725H169.116V213.725ZM333.367 213.725H334.367V85.1229H333.367H332.367V213.725H333.367ZM335.3 215.659V214.659H167.184V215.659V216.659H335.3V215.659ZM167.184 215.659H168.184V85.1229H167.184H166.184V215.659H167.184ZM167.184 85.1229H168.184C168.184 39.2147 205.371 2 251.242 2V1V0C204.265 0 166.184 38.1116 166.184 85.1229H167.184ZM251.242 1V2C297.112 2 334.3 39.2147 334.3 85.1229H335.3H336.3C336.3 38.1116 298.219 0 251.242 0V1ZM335.3 85.1229H334.3V215.659H335.3H336.3V85.1229H335.3ZM167.184 297.848H168.184C168.184 251.904 130.968 214.659 85.058 214.659V215.659V216.659C129.862 216.659 166.184 253.007 166.184 297.848H167.184ZM85.058 215.659V214.659C39.1482 214.659 1.93237 251.904 1.93237 297.848H2.93237H3.93237C3.93237 253.007 40.2543 216.659 85.058 216.659V215.659ZM2.93237 297.848H1.93237V426.449H2.93237H3.93237V297.848H2.93237ZM2.93237 426.449V427.449H167.184V426.449V425.449H2.93237V426.449ZM167.184 426.449H168.184V297.848H167.184H166.184V426.449H167.184ZM169.116 428.383V427.383H1V428.383V429.383H169.116V428.383ZM1 428.383H2V297.848H1H0V428.383H1ZM1 297.848H2C2 251.939 39.1871 214.725 85.058 214.725V213.725V212.725C38.081 212.725 0 250.836 0 297.848H1ZM85.058 213.725V214.725C130.929 214.725 168.116 251.939 168.116 297.848H169.116H170.116C170.116 250.836 132.035 212.725 85.058 212.725V213.725ZM169.116 297.848H168.116V428.383H169.116H170.116V297.848H169.116ZM167.184 85.1229H168.184C168.184 39.1796 130.968 1.93386 85.058 1.93386V2.93386V3.93386C129.862 3.93386 166.184 40.2827 166.184 85.1229H167.184ZM85.058 2.93386V1.93386C39.1482 1.93386 1.93237 39.1796 1.93237 85.1229H2.93237H3.93237C3.93237 40.2827 40.2543 3.93386 85.058 3.93386V2.93386ZM2.93237 85.1229H1.93237V213.725H2.93237H3.93237V85.1229H2.93237ZM2.93237 213.725V214.725H167.184V213.725V212.725H2.93237V213.725ZM167.184 213.725H168.184V85.1229H167.184H166.184V213.725H167.184ZM169.116 215.659V214.659H1V215.659V216.659H169.116V215.659ZM1 215.659H2V85.1229H1H0V215.659H1ZM1 85.1229H2C2 39.2147 39.1871 2 85.058 2V1V0C38.081 0 0 38.1116 0 85.1229H1ZM85.058 1V2C130.929 2 168.116 39.2147 168.116 85.1229H169.116H170.116C170.116 38.1116 132.035 0 85.058 0V1ZM169.116 85.1229H168.116V215.659H169.116H170.116V85.1229H169.116ZM412.594 131.536H411.594C411.594 176.376 375.272 212.725 330.469 212.725V213.725V214.725C376.378 214.725 413.594 177.479 413.594 131.536H412.594ZM330.469 213.725V212.725C285.665 212.725 249.343 176.376 249.343 131.536H248.343H247.343C247.343 177.479 284.559 214.725 330.469 214.725V213.725ZM248.343 131.536H249.343V2.93386H248.343H247.343V131.536H248.343ZM248.343 2.93386V3.93386H412.594V2.93386V1.93386H248.343V2.93386ZM412.594 2.93386H411.594V131.536H412.594H413.594V2.93386H412.594ZM414.527 1V0H246.411V1V2H414.527V1ZM246.411 1H245.411V131.536H246.411H247.411V1H246.411ZM246.411 131.536H245.411C245.411 178.547 283.492 216.659 330.469 216.659V215.659V214.659C284.598 214.659 247.411 177.444 247.411 131.536H246.411ZM330.469 215.659V216.659C377.446 216.659 415.527 178.547 415.527 131.536H414.527H413.527C413.527 177.444 376.34 214.659 330.469 214.659V215.659ZM414.527 131.536H415.527V1H414.527H413.527V131.536H414.527ZM499.551 577.29H500.551C500.551 531.347 463.335 494.101 417.425 494.101V495.101V496.101C462.229 496.101 498.551 532.45 498.551 577.29H499.551ZM417.425 495.101V494.101C371.515 494.101 334.3 531.347 334.3 577.29H335.3H336.3C336.3 532.45 372.621 496.101 417.425 496.101V495.101ZM335.3 577.29H334.3V705.892H335.3H336.3V577.29H335.3ZM335.3 705.892V706.892H499.551V705.892V704.892H335.3V705.892ZM499.551 705.892H500.551V577.29H499.551H498.551V705.892H499.551ZM501.483 707.826V706.826H333.367V707.826V708.826H501.483V707.826ZM333.367 707.826H334.367V577.29H333.367H332.367V707.826H333.367ZM333.367 577.29H334.367C334.367 531.382 371.554 494.168 417.425 494.168V493.168V492.168C370.448 492.168 332.367 530.279 332.367 577.29H333.367ZM417.425 493.168V494.168C463.296 494.168 500.483 531.382 500.483 577.29H501.483H502.483C502.483 530.279 464.402 492.168 417.425 492.168V493.168ZM501.483 577.29H500.483V707.826H501.483H502.483V577.29H501.483ZM499.551 364.566H500.551C500.551 318.622 463.335 281.377 417.425 281.377V282.377V283.377C462.229 283.377 498.551 319.726 498.551 364.566H499.551ZM417.425 282.377V281.377C371.515 281.377 334.3 318.622 334.3 364.566H335.3H336.3C336.3 319.726 372.621 283.377 417.425 283.377V282.377ZM335.3 364.566H334.3V493.168H335.3H336.3V364.566H335.3ZM335.3 493.168V494.168H499.551V493.168V492.168H335.3V493.168ZM499.551 493.168H500.551V364.566H499.551H498.551V493.168H499.551ZM501.483 495.101V494.101H333.367V495.101V496.101H501.483V495.101ZM333.367 495.101H334.367V364.566H333.367H332.367V495.101H333.367ZM333.367 364.566H334.367C334.367 318.658 371.554 281.443 417.425 281.443V280.443V279.443C370.448 279.443 332.367 317.554 332.367 364.566H333.367ZM417.425 280.443V281.443C463.296 281.443 500.483 318.658 500.483 364.566H501.483H502.483C502.483 317.554 464.402 279.443 417.425 279.443V280.443ZM501.483 364.566H500.483V495.101H501.483H502.483V364.566H501.483ZM499.551 151.841H500.551C500.551 105.898 463.335 68.652 417.425 68.652V69.652V70.652C462.229 70.652 498.551 107.001 498.551 151.841H499.551ZM417.425 69.652V68.652C371.515 68.652 334.3 105.898 334.3 151.841H335.3H336.3C336.3 107.001 372.621 70.652 417.425 70.652V69.652ZM335.3 151.841H334.3V280.443H335.3H336.3V151.841H335.3ZM335.3 280.443V281.443H499.551V280.443V279.443H335.3V280.443ZM499.551 280.443H500.551V151.841H499.551H498.551V280.443H499.551ZM501.483 282.377V281.377H333.367V282.377V283.377H501.483V282.377ZM333.367 282.377H334.367V151.841H333.367H332.367V282.377H333.367ZM333.367 151.841H334.367C334.367 105.933 371.554 68.7182 417.425 68.7182V67.7182V66.7182C370.448 66.7182 332.367 104.83 332.367 151.841H333.367ZM417.425 67.7182V68.7182C463.296 68.7182 500.483 105.933 500.483 151.841H501.483H502.483C502.483 104.83 464.402 66.7182 417.425 66.7182V67.7182ZM501.483 151.841H500.483V282.377H501.483H502.483V151.841H501.483ZM251.725 556.018H252.725C252.725 542.919 242.11 532.295 229.019 532.295V533.295V534.295C241.004 534.295 250.725 544.022 250.725 556.018H251.725ZM229.019 533.295V534.295C242.11 534.295 252.725 523.671 252.725 510.572H251.725H250.725C250.725 522.568 241.004 532.295 229.019 532.295V533.295ZM251.725 510.572H250.725C250.725 523.671 261.339 534.295 274.43 534.295V533.295V532.295C262.445 532.295 252.725 522.568 252.725 510.572H251.725ZM274.43 533.295L274.429 532.295C261.328 532.307 250.725 542.919 250.725 556.018H251.725H252.725C252.725 544.023 262.434 534.306 274.431 534.295L274.43 533.295ZM251.725 343.293H252.725C252.725 330.194 242.11 319.57 229.019 319.57V320.57V321.57C241.004 321.57 250.725 331.298 250.725 343.293H251.725ZM229.019 320.57V321.57C242.11 321.57 252.725 310.946 252.725 297.848H251.725H250.725C250.725 309.843 241.004 319.57 229.019 319.57V320.57ZM251.725 297.848H250.725C250.725 310.946 261.339 321.57 274.43 321.57V320.57V319.57C262.445 319.57 252.725 309.843 252.725 297.848H251.725ZM274.43 320.57L274.429 319.57C261.328 319.582 250.725 330.194 250.725 343.293H251.725H252.725C252.725 331.298 262.434 321.581 274.431 321.57L274.43 320.57ZM85.5411 85.1229H84.5411C84.5411 98.2218 95.1558 108.846 108.246 108.846V107.846V106.846C96.2618 106.846 86.5411 97.1186 86.5411 85.1229H85.5411ZM108.246 107.846L108.245 106.846C95.1448 106.858 84.5411 117.469 84.5411 130.569H85.5411H86.5411C86.5411 118.573 96.2502 108.857 108.247 108.846L108.246 107.846ZM85.5411 130.569H86.5411C86.5411 117.47 75.9263 106.846 62.8358 106.846V107.846V108.846C74.8203 108.846 84.5411 118.573 84.5411 130.569H85.5411ZM62.8358 107.846V108.846C75.9263 108.846 86.5411 98.2218 86.5411 85.1229H85.5411H84.5411C84.5411 97.1186 74.8203 106.846 62.8358 106.846V107.846ZM85.5411 94.7101L84.6198 94.3211C82.2269 99.9886 77.6887 104.53 72.026 106.925L72.4155 107.846L72.805 108.767C78.9474 106.169 83.867 101.246 86.4623 95.0991L85.5411 94.7101ZM72.4155 107.846L72.026 108.767C77.6883 111.161 82.2258 115.703 84.6189 121.37L85.5401 120.981L86.4614 120.592C83.866 114.445 78.9471 109.522 72.805 106.925L72.4155 107.846ZM85.5401 120.981L86.4614 121.369C88.854 115.702 93.3928 111.162 99.0596 108.768L98.6704 107.847L98.2812 106.926C92.1347 109.523 87.214 114.444 84.6189 120.592L85.5401 120.981ZM98.6704 107.847L99.0597 106.926C93.3954 104.531 88.8557 99.9897 86.4623 94.3211L85.5411 94.7101L84.6198 95.0991C87.2156 101.247 92.1369 106.171 98.2811 108.768L98.6704 107.847ZM417.908 410.012H418.908C418.908 396.913 408.294 386.289 395.203 386.289V387.289V388.289C407.187 388.289 416.908 398.016 416.908 410.012H417.908ZM395.203 387.289V388.289C408.293 388.289 418.908 377.665 418.908 364.566H417.908H416.908C416.908 376.561 407.187 386.289 395.203 386.289V387.289ZM417.908 364.566H416.908C416.908 377.665 427.523 388.289 440.614 388.289V387.289V386.289C428.629 386.289 418.908 376.561 418.908 364.566H417.908ZM440.614 387.289L440.613 386.289C427.512 386.3 416.908 396.912 416.908 410.012H417.908H418.908C418.908 398.016 428.617 388.299 440.614 388.289L440.614 387.289ZM167.184 1148.75H168.184C168.184 1102.8 130.968 1065.56 85.058 1065.56V1066.56V1067.56C129.862 1067.56 166.184 1103.91 166.184 1148.75H167.184ZM85.058 1066.56V1065.56C39.1482 1065.56 1.93237 1102.8 1.93237 1148.75H2.93237H3.93237C3.93237 1103.91 40.2543 1067.56 85.058 1067.56V1066.56ZM2.93237 1148.75H1.93237V1277.35H2.93237H3.93237V1148.75H2.93237ZM2.93237 1277.35V1278.35H167.184V1277.35V1276.35H2.93237V1277.35ZM167.184 1277.35H168.184V1148.75H167.184H166.184V1277.35H167.184ZM169.116 1279.28V1278.28H1V1279.28V1280.28H169.116V1279.28ZM1 1279.28H2V1148.75H1H0V1279.28H1ZM1 1148.75H2C2 1102.84 39.1871 1065.62 85.058 1065.62V1064.62V1063.62C38.081 1063.62 0 1101.73 0 1148.75H1ZM85.058 1064.62V1065.62C130.929 1065.62 168.116 1102.84 168.116 1148.75H169.116H170.116C170.116 1101.73 132.035 1063.62 85.058 1063.62V1064.62ZM169.116 1148.75H168.116V1279.28H169.116H170.116V1148.75H169.116ZM333.367 1148.75H334.367C334.367 1102.8 297.151 1065.56 251.242 1065.56V1066.56V1067.56C296.045 1067.56 332.367 1103.91 332.367 1148.75H333.367ZM251.242 1066.56V1065.56C205.332 1065.56 168.116 1102.8 168.116 1148.75H169.116H170.116C170.116 1103.91 206.438 1067.56 251.242 1067.56V1066.56ZM169.116 1148.75H168.116V1277.35H169.116H170.116V1148.75H169.116ZM169.116 1277.35V1278.35H333.367V1277.35V1276.35H169.116V1277.35ZM333.367 1277.35H334.367V1148.75H333.367H332.367V1277.35H333.367ZM335.3 1279.28V1278.28H167.184V1279.28V1280.28H335.3V1279.28ZM167.184 1279.28H168.184V1148.75H167.184H166.184V1279.28H167.184ZM167.184 1148.75H168.184C168.184 1102.84 205.371 1065.62 251.242 1065.62V1064.62V1063.62C204.265 1063.62 166.184 1101.73 166.184 1148.75H167.184ZM251.242 1064.62V1065.62C297.112 1065.62 334.3 1102.84 334.3 1148.75H335.3H336.3C336.3 1101.73 298.219 1063.62 251.242 1063.62V1064.62ZM335.3 1148.75H334.3V1279.28H335.3H336.3V1148.75H335.3ZM333.367 936.022H334.367C334.367 890.078 297.151 852.833 251.242 852.833V853.833V854.833C296.045 854.833 332.367 891.181 332.367 936.022H333.367ZM251.242 853.833V852.833C205.332 852.833 168.116 890.078 168.116 936.022H169.116H170.116C170.116 891.181 206.438 854.833 251.242 854.833V853.833ZM169.116 936.022H168.116V1064.62H169.116H170.116V936.022H169.116ZM169.116 1064.62V1065.62H333.367V1064.62V1063.62H169.116V1064.62ZM333.367 1064.62H334.367V936.022H333.367H332.367V1064.62H333.367ZM335.3 1066.56V1065.56H167.184V1066.56V1067.56H335.3V1066.56ZM167.184 1066.56H168.184V936.022H167.184H166.184V1066.56H167.184ZM167.184 936.022H168.184C168.184 890.113 205.371 852.899 251.242 852.899V851.899V850.899C204.265 850.899 166.184 889.01 166.184 936.022H167.184ZM251.242 851.899V852.899C297.112 852.899 334.3 890.113 334.3 936.022H335.3H336.3C336.3 889.01 298.219 850.899 251.242 850.899V851.899ZM335.3 936.022H334.3V1066.56H335.3H336.3V936.022H335.3ZM333.367 723.297H334.367C334.367 677.354 297.151 640.108 251.242 640.108V641.108V642.108C296.045 642.108 332.367 678.457 332.367 723.297H333.367ZM251.242 641.108V640.108C205.332 640.108 168.116 677.354 168.116 723.297H169.116H170.116C170.116 678.457 206.438 642.108 251.242 642.108V641.108ZM169.116 723.297H168.116V851.899H169.116H170.116V723.297H169.116ZM169.116 851.899V852.899H333.367V851.899V850.899H169.116V851.899ZM333.367 851.899H334.367V723.297H333.367H332.367V851.899H333.367ZM335.3 853.833V852.833H167.184V853.833V854.833H335.3V853.833ZM167.184 853.833H168.184V723.297H167.184H166.184V853.833H167.184ZM167.184 723.297H168.184C168.184 677.389 205.371 640.174 251.242 640.174V639.174V638.174C204.265 638.174 166.184 676.286 166.184 723.297H167.184ZM251.242 639.174V640.174C297.112 640.174 334.3 677.389 334.3 723.297H335.3H336.3C336.3 676.286 298.219 638.174 251.242 638.174V639.174ZM335.3 723.297H334.3V853.833H335.3H336.3V723.297H335.3ZM167.184 936.022H168.184C168.184 890.078 130.968 852.833 85.058 852.833V853.833V854.833C129.862 854.833 166.184 891.181 166.184 936.022H167.184ZM85.058 853.833V852.833C39.1482 852.833 1.93237 890.078 1.93237 936.022H2.93237H3.93237C3.93237 891.181 40.2543 854.833 85.058 854.833V853.833ZM2.93237 936.022H1.93237V1064.62H2.93237H3.93237V936.022H2.93237ZM2.93237 1064.62V1065.62H167.184V1064.62V1063.62H2.93237V1064.62ZM167.184 1064.62H168.184V936.022H167.184H166.184V1064.62H167.184ZM169.116 1066.56V1065.56H1V1066.56V1067.56H169.116V1066.56ZM1 1066.56H2V936.022H1H0V1066.56H1ZM1 936.022H2C2 890.113 39.1871 852.899 85.058 852.899V851.899V850.899C38.081 850.899 0 889.01 0 936.022H1ZM85.058 851.899V852.899C130.929 852.899 168.116 890.113 168.116 936.022H169.116H170.116C170.116 889.01 132.035 850.899 85.058 850.899V851.899ZM169.116 936.022H168.116V1066.56H169.116H170.116V936.022H169.116ZM167.184 723.297H168.184C168.184 677.354 130.968 640.108 85.058 640.108V641.108V642.108C129.862 642.108 166.184 678.457 166.184 723.297H167.184ZM85.058 641.108V640.108C39.1482 640.108 1.93237 677.354 1.93237 723.297H2.93237H3.93237C3.93237 678.457 40.2543 642.108 85.058 642.108V641.108ZM2.93237 723.297H1.93237V851.899H2.93237H3.93237V723.297H2.93237ZM2.93237 851.899V852.899H167.184V851.899V850.899H2.93237V851.899ZM167.184 851.899H168.184V723.297H167.184H166.184V851.899H167.184ZM169.116 853.833V852.833H1V853.833V854.833H169.116V853.833ZM1 853.833H2V723.297H1H0V853.833H1ZM1 723.297H2C2 677.389 39.1871 640.174 85.058 640.174V639.174V638.174C38.081 638.174 0 676.286 0 723.297H1ZM85.058 639.174V640.174C130.929 640.174 168.116 677.389 168.116 723.297H169.116H170.116C170.116 676.286 132.035 638.174 85.058 638.174V639.174ZM169.116 723.297H168.116V853.833H169.116H170.116V723.297H169.116ZM412.594 769.71H411.594C411.594 814.55 375.272 850.899 330.469 850.899V851.899V852.899C376.378 852.899 413.594 815.653 413.594 769.71H412.594ZM330.469 851.899V850.899C285.665 850.899 249.343 814.55 249.343 769.71H248.343H247.343C247.343 815.653 284.559 852.899 330.469 852.899V851.899ZM248.343 769.71H249.343V641.108H248.343H247.343V769.71H248.343ZM248.343 641.108V642.108H412.594V641.108V640.108H248.343V641.108ZM412.594 641.108H411.594V769.71H412.594H413.594V641.108H412.594ZM414.527 639.174V638.174H246.411V639.174V640.174H414.527V639.174ZM246.411 639.174H245.411V769.71H246.411H247.411V639.174H246.411ZM246.411 769.71H245.411C245.411 816.721 283.492 854.833 330.469 854.833V853.833V852.833C284.598 852.833 247.411 815.618 247.411 769.71H246.411ZM330.469 853.833V854.833C377.446 854.833 415.527 816.721 415.527 769.71H414.527H413.527C413.527 815.618 376.34 852.833 330.469 852.833V853.833ZM414.527 769.71H415.527V639.174H414.527H413.527V769.71H414.527ZM499.551 1215.46H500.551C500.551 1169.52 463.335 1132.28 417.425 1132.28V1133.28V1134.28C462.229 1134.28 498.551 1170.62 498.551 1215.46H499.551ZM417.425 1133.28V1132.28C371.515 1132.28 334.3 1169.52 334.3 1215.46H335.3H336.3C336.3 1170.62 372.621 1134.28 417.425 1134.28V1133.28ZM335.3 1215.46H334.3V1344.07H335.3H336.3V1215.46H335.3ZM335.3 1344.07V1345.07H499.551V1344.07V1343.07H335.3V1344.07ZM499.551 1344.07H500.551V1215.46H499.551H498.551V1344.07H499.551ZM501.483 1346V1345H333.367V1346V1347H501.483V1346ZM333.367 1346H334.367V1215.46H333.367H332.367V1346H333.367ZM333.367 1215.46H334.367C334.367 1169.56 371.554 1132.34 417.425 1132.34V1131.34V1130.34C370.448 1130.34 332.367 1168.45 332.367 1215.46H333.367ZM417.425 1131.34V1132.34C463.296 1132.34 500.483 1169.56 500.483 1215.46H501.483H502.483C502.483 1168.45 464.402 1130.34 417.425 1130.34V1131.34ZM501.483 1215.46H500.483V1346H501.483H502.483V1215.46H501.483ZM499.551 1002.74H500.551C500.551 956.796 463.335 919.551 417.425 919.551V920.551V921.551C462.229 921.551 498.551 957.9 498.551 1002.74H499.551ZM417.425 920.551V919.551C371.515 919.551 334.3 956.796 334.3 1002.74H335.3H336.3C336.3 957.9 372.621 921.551 417.425 921.551V920.551ZM335.3 1002.74H334.3V1131.34H335.3H336.3V1002.74H335.3ZM335.3 1131.34V1132.34H499.551V1131.34V1130.34H335.3V1131.34ZM499.551 1131.34H500.551V1002.74H499.551H498.551V1131.34H499.551ZM501.483 1133.28V1132.28H333.367V1133.28V1134.28H501.483V1133.28ZM333.367 1133.28H334.367V1002.74H333.367H332.367V1133.28H333.367ZM333.367 1002.74H334.367C334.367 956.831 371.554 919.617 417.425 919.617V918.617V917.617C370.448 917.617 332.367 955.728 332.367 1002.74H333.367ZM417.425 918.617V919.617C463.296 919.617 500.483 956.831 500.483 1002.74H501.483H502.483C502.483 955.728 464.402 917.617 417.425 917.617V918.617ZM501.483 1002.74H500.483V1133.28H501.483H502.483V1002.74H501.483ZM499.551 790.015H500.551C500.551 744.072 463.335 706.826 417.425 706.826V707.826V708.826C462.229 708.826 498.551 745.175 498.551 790.015H499.551ZM417.425 707.826V706.826C371.515 706.826 334.3 744.072 334.3 790.015H335.3H336.3C336.3 745.175 372.621 708.826 417.425 708.826V707.826ZM335.3 790.015H334.3V918.617H335.3H336.3V790.015H335.3ZM335.3 918.617V919.617H499.551V918.617V917.617H335.3V918.617ZM499.551 918.617H500.551V790.015H499.551H498.551V918.617H499.551ZM501.483 920.551V919.551H333.367V920.551V921.551H501.483V920.551ZM333.367 920.551H334.367V790.015H333.367H332.367V920.551H333.367ZM333.367 790.015H334.367C334.367 744.107 371.554 706.892 417.425 706.892V705.892V704.892C370.448 704.892 332.367 743.004 332.367 790.015H333.367ZM417.425 705.892V706.892C463.296 706.892 500.483 744.107 500.483 790.015H501.483H502.483C502.483 743.004 464.402 704.892 417.425 704.892V705.892ZM501.483 790.015H500.483V920.551H501.483H502.483V790.015H501.483ZM251.725 1194.19H252.725C252.725 1181.09 242.11 1170.47 229.019 1170.47V1171.47V1172.47C241.004 1172.47 250.725 1182.2 250.725 1194.19H251.725ZM229.019 1171.47V1172.47C242.11 1172.47 252.725 1161.85 252.725 1148.75H251.725H250.725C250.725 1160.74 241.004 1170.47 229.019 1170.47V1171.47ZM251.725 1148.75H250.725C250.725 1161.85 261.339 1172.47 274.43 1172.47V1171.47V1170.47C262.445 1170.47 252.725 1160.74 252.725 1148.75H251.725ZM274.43 1171.47L274.429 1170.47C261.328 1170.48 250.725 1181.09 250.725 1194.19H251.725H252.725C252.725 1182.2 262.434 1172.48 274.431 1172.47L274.43 1171.47ZM251.725 981.467H252.725C252.725 968.368 242.11 957.744 229.019 957.744V958.744V959.744C241.004 959.744 250.725 969.472 250.725 981.467H251.725ZM229.019 958.744V959.744C242.11 959.744 252.725 949.12 252.725 936.022H251.725H250.725C250.725 948.017 241.004 957.744 229.019 957.744V958.744ZM251.725 936.022H250.725C250.725 949.12 261.339 959.744 274.43 959.744V958.744V957.744C262.445 957.744 252.725 948.017 252.725 936.022H251.725ZM274.43 958.744L274.429 957.744C261.328 957.756 250.725 968.368 250.725 981.467H251.725H252.725C252.725 969.472 262.434 959.755 274.431 959.744L274.43 958.744ZM85.5411 723.297H84.5411C84.5411 736.396 95.1558 747.02 108.246 747.02V746.02V745.02C96.2618 745.02 86.5411 735.293 86.5411 723.297H85.5411ZM108.246 746.02L108.245 745.02C95.1448 745.032 84.5411 755.643 84.5411 768.743H85.5411H86.5411C86.5411 756.747 96.2502 747.031 108.247 747.02L108.246 746.02ZM85.5411 768.743H86.5411C86.5411 755.644 75.9263 745.02 62.8358 745.02V746.02V747.02C74.8203 747.02 84.5411 756.747 84.5411 768.743H85.5411ZM62.8358 746.02V747.02C75.9263 747.02 86.5411 736.396 86.5411 723.297H85.5411H84.5411C84.5411 735.293 74.8203 745.02 62.8358 745.02V746.02ZM85.5411 732.884L84.6198 732.495C82.2269 738.163 77.6887 742.704 72.026 745.099L72.4155 746.02L72.805 746.941C78.9474 744.343 83.867 739.42 86.4623 733.273L85.5411 732.884ZM72.4155 746.02L72.026 746.941C77.6883 749.335 82.2258 753.877 84.6189 759.544L85.5401 759.155L86.4614 758.766C83.866 752.619 78.9471 747.696 72.805 745.099L72.4155 746.02ZM85.5401 759.155L86.4614 759.543C88.854 753.876 93.3928 749.336 99.0596 746.942L98.6704 746.021L98.2812 745.1C92.1347 747.697 87.214 752.618 84.6189 758.766L85.5401 759.155ZM98.6704 746.021L99.0597 745.1C93.3954 742.705 88.8557 738.164 86.4623 732.495L85.5411 732.884L84.6198 733.273C87.2156 739.421 92.1369 744.345 98.2811 746.942L98.6704 746.021ZM417.908 1048.19H418.908C418.908 1035.09 408.293 1024.46 395.203 1024.46V1025.46V1026.46C407.187 1026.46 416.908 1036.19 416.908 1048.19H417.908ZM395.203 1025.46V1026.46C408.294 1026.46 418.908 1015.84 418.908 1002.74H417.908H416.908C416.908 1014.74 407.187 1024.46 395.203 1024.46V1025.46ZM417.908 1002.74H416.908C416.908 1015.84 427.523 1026.46 440.614 1026.46V1025.46V1024.46C428.629 1024.46 418.908 1014.74 418.908 1002.74H417.908ZM440.614 1025.46L440.613 1024.46C427.512 1024.47 416.908 1035.09 416.908 1048.19H417.908H418.908C418.908 1036.19 428.617 1026.47 440.614 1026.46L440.614 1025.46ZM666.701 510.572H667.701C667.701 464.629 630.485 427.383 584.575 427.383V428.383V429.383C629.379 429.383 665.701 465.732 665.701 510.572H666.701ZM584.575 428.383V427.383C538.665 427.383 501.449 464.629 501.449 510.572H502.449H503.449C503.449 465.732 539.771 429.383 584.575 429.383V428.383ZM502.449 510.572H501.449V639.174H502.449H503.449V510.572H502.449ZM502.449 639.174V640.174H666.701V639.174V638.174H502.449V639.174ZM666.701 639.174H667.701V510.572H666.701H665.701V639.174H666.701ZM668.633 641.108V640.108H500.517V641.108V642.108H668.633V641.108ZM500.517 641.108H501.517V510.572H500.517H499.517V641.108H500.517ZM500.517 510.572H501.517C501.517 464.664 538.704 427.449 584.575 427.449V426.449V425.449C537.598 425.449 499.517 463.561 499.517 510.572H500.517ZM584.575 426.449V427.449C630.446 427.449 667.633 464.664 667.633 510.572H668.633H669.633C669.633 463.561 631.552 425.449 584.575 425.449V426.449ZM668.633 510.572H667.633V641.108H668.633H669.633V510.572H668.633ZM832.884 510.572H833.884C833.884 464.629 796.668 427.383 750.758 427.383V428.383V429.383C795.562 429.383 831.884 465.732 831.884 510.572H832.884ZM750.758 428.383V427.383C704.849 427.383 667.633 464.629 667.633 510.572H668.633H669.633C669.633 465.732 705.955 429.383 750.758 429.383V428.383ZM668.633 510.572H667.633V639.174H668.633H669.633V510.572H668.633ZM668.633 639.174V640.174H832.884V639.174V638.174H668.633V639.174ZM832.884 639.174H833.884V510.572H832.884H831.884V639.174H832.884ZM834.816 641.108V640.108H666.701V641.108V642.108H834.816V641.108ZM666.701 641.108H667.701V510.572H666.701H665.701V641.108H666.701ZM666.701 510.572H667.701C667.701 464.664 704.888 427.449 750.758 427.449V426.449V425.449C703.782 425.449 665.701 463.561 665.701 510.572H666.701ZM750.758 426.449V427.449C796.629 427.449 833.816 464.664 833.816 510.572H834.816H835.816C835.816 463.561 797.735 425.449 750.758 425.449V426.449ZM834.816 510.572H833.816V641.108H834.816H835.816V510.572H834.816ZM832.884 297.848H833.884C833.884 251.904 796.668 214.659 750.758 214.659V215.659V216.659C795.562 216.659 831.884 253.007 831.884 297.848H832.884ZM750.758 215.659V214.659C704.849 214.659 667.633 251.904 667.633 297.848H668.633H669.633C669.633 253.007 705.955 216.659 750.758 216.659V215.659ZM668.633 297.848H667.633V426.449H668.633H669.633V297.848H668.633ZM668.633 426.449V427.449H832.884V426.449V425.449H668.633V426.449ZM832.884 426.449H833.884V297.848H832.884H831.884V426.449H832.884ZM834.816 428.383V427.383H666.701V428.383V429.383H834.816V428.383ZM666.701 428.383H667.701V297.848H666.701H665.701V428.383H666.701ZM666.701 297.848H667.701C667.701 251.939 704.888 214.725 750.758 214.725V213.725V212.725C703.782 212.725 665.701 250.836 665.701 297.848H666.701ZM750.758 213.725V214.725C796.629 214.725 833.816 251.939 833.816 297.848H834.816H835.816C835.816 250.836 797.735 212.725 750.758 212.725V213.725ZM834.816 297.848H833.816V428.383H834.816H835.816V297.848H834.816ZM832.884 85.1229H833.884C833.884 39.1796 796.668 1.93386 750.758 1.93386V2.93386V3.93386C795.562 3.93386 831.884 40.2827 831.884 85.1229H832.884ZM750.758 2.93386V1.93386C704.849 1.93386 667.633 39.1796 667.633 85.1229H668.633H669.633C669.633 40.2827 705.955 3.93386 750.758 3.93386V2.93386ZM668.633 85.1229H667.633V213.725H668.633H669.633V85.1229H668.633ZM668.633 213.725V214.725H832.884V213.725V212.725H668.633V213.725ZM832.884 213.725H833.884V85.1229H832.884H831.884V213.725H832.884ZM834.816 215.659V214.659H666.701V215.659V216.659H834.816V215.659ZM666.701 215.659H667.701V85.1229H666.701H665.701V215.659H666.701ZM666.701 85.1229H667.701C667.701 39.2147 704.888 2 750.758 2V1V0C703.782 0 665.701 38.1116 665.701 85.1229H666.701ZM750.758 1V2C796.629 2 833.816 39.2147 833.816 85.1229H834.816H835.816C835.816 38.1116 797.735 0 750.758 0V1ZM834.816 85.1229H833.816V215.659H834.816H835.816V85.1229H834.816ZM666.701 297.848H667.701C667.701 251.904 630.485 214.659 584.575 214.659V215.659V216.659C629.379 216.659 665.701 253.007 665.701 297.848H666.701ZM584.575 215.659V214.659C538.665 214.659 501.449 251.904 501.449 297.848H502.449H503.449C503.449 253.007 539.771 216.659 584.575 216.659V215.659ZM502.449 297.848H501.449V426.449H502.449H503.449V297.848H502.449ZM502.449 426.449V427.449H666.701V426.449V425.449H502.449V426.449ZM666.701 426.449H667.701V297.848H666.701H665.701V426.449H666.701ZM668.633 428.383V427.383H500.517V428.383V429.383H668.633V428.383ZM500.517 428.383H501.517V297.848H500.517H499.517V428.383H500.517ZM500.517 297.848H501.517C501.517 251.939 538.704 214.725 584.575 214.725V213.725V212.725C537.598 212.725 499.517 250.836 499.517 297.848H500.517ZM584.575 213.725V214.725C630.446 214.725 667.633 251.939 667.633 297.848H668.633H669.633C669.633 250.836 631.552 212.725 584.575 212.725V213.725ZM668.633 297.848H667.633V428.383H668.633H669.633V297.848H668.633ZM666.701 85.1229H667.701C667.701 39.1796 630.485 1.93386 584.575 1.93386V2.93386V3.93386C629.379 3.93386 665.701 40.2827 665.701 85.1229H666.701ZM584.575 2.93386V1.93386C538.665 1.93386 501.449 39.1796 501.449 85.1229H502.449H503.449C503.449 40.2827 539.771 3.93386 584.575 3.93386V2.93386ZM502.449 85.1229H501.449V213.725H502.449H503.449V85.1229H502.449ZM502.449 213.725V214.725H666.701V213.725V212.725H502.449V213.725ZM666.701 213.725H667.701V85.1229H666.701H665.701V213.725H666.701ZM668.633 215.659V214.659H500.517V215.659V216.659H668.633V215.659ZM500.517 215.659H501.517V85.1229H500.517H499.517V215.659H500.517ZM500.517 85.1229H501.517C501.517 39.2147 538.704 2 584.575 2V1V0C537.598 0 499.517 38.1116 499.517 85.1229H500.517ZM584.575 1V2C630.446 2 667.633 39.2147 667.633 85.1229H668.633H669.633C669.633 38.1116 631.552 0 584.575 0V1ZM668.633 85.1229H667.633V215.659H668.633H669.633V85.1229H668.633ZM912.111 131.536H911.111C911.111 176.376 874.789 212.725 829.986 212.725V213.725V214.725C875.895 214.725 913.111 177.479 913.111 131.536H912.111ZM829.986 213.725V212.725C785.182 212.725 748.86 176.376 748.86 131.536H747.86H746.86C746.86 177.479 784.076 214.725 829.986 214.725V213.725ZM747.86 131.536H748.86V2.93386H747.86H746.86V131.536H747.86ZM747.86 2.93386V3.93386H912.111V2.93386V1.93386H747.86V2.93386ZM912.111 2.93386H911.111V131.536H912.111H913.111V2.93386H912.111ZM914.044 1V0H745.928V1V2H914.044V1ZM745.928 1H744.928V131.536H745.928H746.928V1H745.928ZM745.928 131.536H744.928C744.928 178.547 783.009 216.659 829.986 216.659V215.659V214.659C784.115 214.659 746.928 177.444 746.928 131.536H745.928ZM829.986 215.659V216.659C876.962 216.659 915.044 178.547 915.044 131.536H914.044H913.044C913.044 177.444 875.856 214.659 829.986 214.659V215.659ZM914.044 131.536H915.044V1H914.044H913.044V131.536H914.044ZM999.068 577.29H1000.07C1000.07 531.347 962.852 494.101 916.942 494.101V495.101V496.101C961.746 496.101 998.068 532.45 998.068 577.29H999.068ZM916.942 495.101V494.101C871.032 494.101 833.816 531.347 833.816 577.29H834.816H835.816C835.816 532.45 872.138 496.101 916.942 496.101V495.101ZM834.816 577.29H833.816V705.892H834.816H835.816V577.29H834.816ZM834.816 705.892V706.892H999.068V705.892V704.892H834.816V705.892ZM999.068 705.892H1000.07V577.29H999.068H998.068V705.892H999.068ZM1001 707.826V706.826H832.884V707.826V708.826H1001V707.826ZM832.884 707.826H833.884V577.29H832.884H831.884V707.826H832.884ZM832.884 577.29H833.884C833.884 531.382 871.071 494.168 916.942 494.168V493.168V492.168C869.965 492.168 831.884 530.279 831.884 577.29H832.884ZM916.942 493.168V494.168C962.813 494.168 1000 531.382 1000 577.29H1001H1002C1002 530.279 963.919 492.168 916.942 492.168V493.168ZM1001 577.29H1000V707.826H1001H1002V577.29H1001ZM999.068 364.566H1000.07C1000.07 318.622 962.852 281.377 916.942 281.377V282.377V283.377C961.746 283.377 998.068 319.726 998.068 364.566H999.068ZM916.942 282.377V281.377C871.032 281.377 833.816 318.622 833.816 364.566H834.816H835.816C835.816 319.726 872.138 283.377 916.942 283.377V282.377ZM834.816 364.566H833.816V493.168H834.816H835.816V364.566H834.816ZM834.816 493.168V494.168H999.068V493.168V492.168H834.816V493.168ZM999.068 493.168H1000.07V364.566H999.068H998.068V493.168H999.068ZM1001 495.101V494.101H832.884V495.101V496.101H1001V495.101ZM832.884 495.101H833.884V364.566H832.884H831.884V495.101H832.884ZM832.884 364.566H833.884C833.884 318.658 871.071 281.443 916.942 281.443V280.443V279.443C869.965 279.443 831.884 317.554 831.884 364.566H832.884ZM916.942 280.443V281.443C962.813 281.443 1000 318.658 1000 364.566H1001H1002C1002 317.554 963.919 279.443 916.942 279.443V280.443ZM1001 364.566H1000V495.101H1001H1002V364.566H1001ZM999.068 151.841H1000.07C1000.07 105.898 962.852 68.652 916.942 68.652V69.652V70.652C961.746 70.652 998.068 107.001 998.068 151.841H999.068ZM916.942 69.652V68.652C871.032 68.652 833.816 105.898 833.816 151.841H834.816H835.816C835.816 107.001 872.138 70.652 916.942 70.652V69.652ZM834.816 151.841H833.816V280.443H834.816H835.816V151.841H834.816ZM834.816 280.443V281.443H999.068V280.443V279.443H834.816V280.443ZM999.068 280.443H1000.07V151.841H999.068H998.068V280.443H999.068ZM1001 282.377V281.377H832.884V282.377V283.377H1001V282.377ZM832.884 282.377H833.884V151.841H832.884H831.884V282.377H832.884ZM832.884 151.841H833.884C833.884 105.933 871.071 68.7182 916.942 68.7182V67.7182V66.7182C869.965 66.7182 831.884 104.83 831.884 151.841H832.884ZM916.942 67.7182V68.7182C962.813 68.7182 1000 105.933 1000 151.841H1001H1002C1002 104.83 963.919 66.7182 916.942 66.7182V67.7182ZM1001 151.841H1000V282.377H1001H1002V151.841H1001ZM751.242 556.018H752.242C752.242 542.919 741.627 532.295 728.536 532.295V533.295V534.295C740.521 534.295 750.242 544.022 750.242 556.018H751.242ZM728.536 533.295V534.295C741.627 534.295 752.242 523.671 752.242 510.572H751.242H750.242C750.242 522.568 740.521 532.295 728.536 532.295V533.295ZM751.242 510.572H750.242C750.242 523.671 760.856 534.295 773.947 534.295V533.295V532.295C761.962 532.295 752.242 522.568 752.242 510.572H751.242ZM773.947 533.295L773.946 532.295C760.845 532.307 750.242 542.919 750.242 556.018H751.242H752.242C752.242 544.023 761.951 534.306 773.948 534.295L773.947 533.295ZM751.242 343.293H752.242C752.242 330.194 741.627 319.57 728.536 319.57V320.57V321.57C740.521 321.57 750.242 331.298 750.242 343.293H751.242ZM728.536 320.57V321.57C741.627 321.57 752.242 310.946 752.242 297.848H751.242H750.242C750.242 309.843 740.521 319.57 728.536 319.57V320.57ZM751.242 297.848H750.242C750.242 310.946 760.856 321.57 773.947 321.57V320.57V319.57C761.962 319.57 752.242 309.843 752.242 297.848H751.242ZM773.947 320.57L773.946 319.57C760.845 319.582 750.242 330.194 750.242 343.293H751.242H752.242C752.242 331.298 761.951 321.581 773.948 321.57L773.947 320.57ZM585.058 85.1229H584.058C584.058 98.2218 594.673 108.846 607.763 108.846V107.846V106.846C595.779 106.846 586.058 97.1186 586.058 85.1229H585.058ZM607.763 107.846L607.762 106.846C594.662 106.858 584.058 117.469 584.058 130.569H585.058H586.058C586.058 118.573 595.767 108.857 607.764 108.846L607.763 107.846ZM585.058 130.569H586.058C586.058 117.47 575.443 106.846 562.353 106.846V107.846V108.846C574.337 108.846 584.058 118.573 584.058 130.569H585.058ZM562.353 107.846V108.846C575.443 108.846 586.058 98.2218 586.058 85.1229H585.058H584.058C584.058 97.1186 574.337 106.846 562.353 106.846V107.846ZM585.058 94.7101L584.137 94.3211C581.744 99.9886 577.206 104.53 571.543 106.925L571.932 107.846L572.322 108.767C578.464 106.169 583.384 101.246 585.979 95.0991L585.058 94.7101ZM571.932 107.846L571.543 108.767C577.205 111.161 581.743 115.703 584.136 121.37L585.057 120.981L585.978 120.592C583.383 114.445 578.464 109.522 572.322 106.925L571.932 107.846ZM585.057 120.981L585.978 121.369C588.371 115.702 592.91 111.162 598.577 108.768L598.187 107.847L597.798 106.926C591.652 109.523 586.731 114.444 584.136 120.592L585.057 120.981ZM598.187 107.847L598.577 106.926C592.912 104.531 588.373 99.9897 585.979 94.3211L585.058 94.7101L584.137 95.0991C586.733 101.247 591.654 106.171 597.798 108.768L598.187 107.847ZM917.425 410.012H918.425C918.425 396.913 907.81 386.289 894.72 386.289V387.289V388.289C906.704 388.289 916.425 398.016 916.425 410.012H917.425ZM894.72 387.289V388.289C907.81 388.289 918.425 377.665 918.425 364.566H917.425H916.425C916.425 376.561 906.704 386.289 894.72 386.289V387.289ZM917.425 364.566H916.425C916.425 377.665 927.04 388.289 940.13 388.289V387.289V386.289C928.146 386.289 918.425 376.561 918.425 364.566H917.425ZM940.13 387.289L940.13 386.289C927.029 386.3 916.425 396.912 916.425 410.012H917.425H918.425C918.425 398.016 928.134 388.299 940.131 388.289L940.13 387.289ZM666.701 1148.75H667.701C667.701 1102.8 630.485 1065.56 584.575 1065.56V1066.56V1067.56C629.379 1067.56 665.701 1103.91 665.701 1148.75H666.701ZM584.575 1066.56V1065.56C538.665 1065.56 501.449 1102.8 501.449 1148.75H502.449H503.449C503.449 1103.91 539.771 1067.56 584.575 1067.56V1066.56ZM502.449 1148.75H501.449V1277.35H502.449H503.449V1148.75H502.449ZM502.449 1277.35V1278.35H666.701V1277.35V1276.35H502.449V1277.35ZM666.701 1277.35H667.701V1148.75H666.701H665.701V1277.35H666.701ZM668.633 1279.28V1278.28H500.517V1279.28V1280.28H668.633V1279.28ZM500.517 1279.28H501.517V1148.75H500.517H499.517V1279.28H500.517ZM500.517 1148.75H501.517C501.517 1102.84 538.704 1065.62 584.575 1065.62V1064.62V1063.62C537.598 1063.62 499.517 1101.73 499.517 1148.75H500.517ZM584.575 1064.62V1065.62C630.446 1065.62 667.633 1102.84 667.633 1148.75H668.633H669.633C669.633 1101.73 631.552 1063.62 584.575 1063.62V1064.62ZM668.633 1148.75H667.633V1279.28H668.633H669.633V1148.75H668.633ZM832.884 1148.75H833.884C833.884 1102.8 796.668 1065.56 750.758 1065.56V1066.56V1067.56C795.562 1067.56 831.884 1103.91 831.884 1148.75H832.884ZM750.758 1066.56V1065.56C704.849 1065.56 667.633 1102.8 667.633 1148.75H668.633H669.633C669.633 1103.91 705.955 1067.56 750.758 1067.56V1066.56ZM668.633 1148.75H667.633V1277.35H668.633H669.633V1148.75H668.633ZM668.633 1277.35V1278.35H832.884V1277.35V1276.35H668.633V1277.35ZM832.884 1277.35H833.884V1148.75H832.884H831.884V1277.35H832.884ZM834.816 1279.28V1278.28H666.701V1279.28V1280.28H834.816V1279.28ZM666.701 1279.28H667.701V1148.75H666.701H665.701V1279.28H666.701ZM666.701 1148.75H667.701C667.701 1102.84 704.888 1065.62 750.758 1065.62V1064.62V1063.62C703.782 1063.62 665.701 1101.73 665.701 1148.75H666.701ZM750.758 1064.62V1065.62C796.629 1065.62 833.816 1102.84 833.816 1148.75H834.816H835.816C835.816 1101.73 797.735 1063.62 750.758 1063.62V1064.62ZM834.816 1148.75H833.816V1279.28H834.816H835.816V1148.75H834.816ZM832.884 936.022H833.884C833.884 890.078 796.668 852.833 750.758 852.833V853.833V854.833C795.562 854.833 831.884 891.181 831.884 936.022H832.884ZM750.758 853.833V852.833C704.849 852.833 667.633 890.078 667.633 936.022H668.633H669.633C669.633 891.181 705.955 854.833 750.758 854.833V853.833ZM668.633 936.022H667.633V1064.62H668.633H669.633V936.022H668.633ZM668.633 1064.62V1065.62H832.884V1064.62V1063.62H668.633V1064.62ZM832.884 1064.62H833.884V936.022H832.884H831.884V1064.62H832.884ZM834.816 1066.56V1065.56H666.701V1066.56V1067.56H834.816V1066.56ZM666.701 1066.56H667.701V936.022H666.701H665.701V1066.56H666.701ZM666.701 936.022H667.701C667.701 890.113 704.888 852.899 750.758 852.899V851.899V850.899C703.782 850.899 665.701 889.01 665.701 936.022H666.701ZM750.758 851.899V852.899C796.629 852.899 833.816 890.113 833.816 936.022H834.816H835.816C835.816 889.01 797.735 850.899 750.758 850.899V851.899ZM834.816 936.022H833.816V1066.56H834.816H835.816V936.022H834.816ZM832.884 723.297H833.884C833.884 677.354 796.668 640.108 750.758 640.108V641.108V642.108C795.562 642.108 831.884 678.457 831.884 723.297H832.884ZM750.758 641.108V640.108C704.849 640.108 667.633 677.354 667.633 723.297H668.633H669.633C669.633 678.457 705.955 642.108 750.758 642.108V641.108ZM668.633 723.297H667.633V851.899H668.633H669.633V723.297H668.633ZM668.633 851.899V852.899H832.884V851.899V850.899H668.633V851.899ZM832.884 851.899H833.884V723.297H832.884H831.884V851.899H832.884ZM834.816 853.833V852.833H666.701V853.833V854.833H834.816V853.833ZM666.701 853.833H667.701V723.297H666.701H665.701V853.833H666.701ZM666.701 723.297H667.701C667.701 677.389 704.888 640.174 750.758 640.174V639.174V638.174C703.782 638.174 665.701 676.286 665.701 723.297H666.701ZM750.758 639.174V640.174C796.629 640.174 833.816 677.389 833.816 723.297H834.816H835.816C835.816 676.286 797.735 638.174 750.758 638.174V639.174ZM834.816 723.297H833.816V853.833H834.816H835.816V723.297H834.816ZM666.701 936.022H667.701C667.701 890.078 630.485 852.833 584.575 852.833V853.833V854.833C629.379 854.833 665.701 891.181 665.701 936.022H666.701ZM584.575 853.833V852.833C538.665 852.833 501.449 890.078 501.449 936.022H502.449H503.449C503.449 891.181 539.771 854.833 584.575 854.833V853.833ZM502.449 936.022H501.449V1064.62H502.449H503.449V936.022H502.449ZM502.449 1064.62V1065.62H666.701V1064.62V1063.62H502.449V1064.62ZM666.701 1064.62H667.701V936.022H666.701H665.701V1064.62H666.701ZM668.633 1066.56V1065.56H500.517V1066.56V1067.56H668.633V1066.56ZM500.517 1066.56H501.517V936.022H500.517H499.517V1066.56H500.517ZM500.517 936.022H501.517C501.517 890.113 538.704 852.899 584.575 852.899V851.899V850.899C537.598 850.899 499.517 889.01 499.517 936.022H500.517ZM584.575 851.899V852.899C630.446 852.899 667.633 890.113 667.633 936.022H668.633H669.633C669.633 889.01 631.552 850.899 584.575 850.899V851.899ZM668.633 936.022H667.633V1066.56H668.633H669.633V936.022H668.633ZM666.701 723.297H667.701C667.701 677.354 630.485 640.108 584.575 640.108V641.108V642.108C629.379 642.108 665.701 678.457 665.701 723.297H666.701ZM584.575 641.108V640.108C538.665 640.108 501.449 677.354 501.449 723.297H502.449H503.449C503.449 678.457 539.771 642.108 584.575 642.108V641.108ZM502.449 723.297H501.449V851.899H502.449H503.449V723.297H502.449ZM502.449 851.899V852.899H666.701V851.899V850.899H502.449V851.899ZM666.701 851.899H667.701V723.297H666.701H665.701V851.899H666.701ZM668.633 853.833V852.833H500.517V853.833V854.833H668.633V853.833ZM500.517 853.833H501.517V723.297H500.517H499.517V853.833H500.517ZM500.517 723.297H501.517C501.517 677.389 538.704 640.174 584.575 640.174V639.174V638.174C537.598 638.174 499.517 676.286 499.517 723.297H500.517ZM584.575 639.174V640.174C630.446 640.174 667.633 677.389 667.633 723.297H668.633H669.633C669.633 676.286 631.552 638.174 584.575 638.174V639.174ZM668.633 723.297H667.633V853.833H668.633H669.633V723.297H668.633ZM912.111 769.71H911.111C911.111 814.55 874.789 850.899 829.986 850.899V851.899V852.899C875.895 852.899 913.111 815.653 913.111 769.71H912.111ZM829.986 851.899V850.899C785.182 850.899 748.86 814.55 748.86 769.71H747.86H746.86C746.86 815.653 784.076 852.899 829.986 852.899V851.899ZM747.86 769.71H748.86V641.108H747.86H746.86V769.71H747.86ZM747.86 641.108V642.108H912.111V641.108V640.108H747.86V641.108ZM912.111 641.108H911.111V769.71H912.111H913.111V641.108H912.111ZM914.044 639.174V638.174H745.928V639.174V640.174H914.044V639.174ZM745.928 639.174H744.928V769.71H745.928H746.928V639.174H745.928ZM745.928 769.71H744.928C744.928 816.721 783.009 854.833 829.986 854.833V853.833V852.833C784.115 852.833 746.928 815.618 746.928 769.71H745.928ZM829.986 853.833V854.833C876.962 854.833 915.044 816.721 915.044 769.71H914.044H913.044C913.044 815.618 875.856 852.833 829.986 852.833V853.833ZM914.044 769.71H915.044V639.174H914.044H913.044V769.71H914.044ZM999.068 1215.46H1000.07C1000.07 1169.52 962.852 1132.28 916.942 1132.28V1133.28V1134.28C961.746 1134.28 998.068 1170.62 998.068 1215.46H999.068ZM916.942 1133.28V1132.28C871.032 1132.28 833.816 1169.52 833.816 1215.46H834.816H835.816C835.816 1170.62 872.138 1134.28 916.942 1134.28V1133.28ZM834.816 1215.46H833.816V1344.07H834.816H835.816V1215.46H834.816ZM834.816 1344.07V1345.07H999.068V1344.07V1343.07H834.816V1344.07ZM999.068 1344.07H1000.07V1215.46H999.068H998.068V1344.07H999.068ZM1001 1346V1345H832.884V1346V1347H1001V1346ZM832.884 1346H833.884V1215.46H832.884H831.884V1346H832.884ZM832.884 1215.46H833.884C833.884 1169.56 871.071 1132.34 916.942 1132.34V1131.34V1130.34C869.965 1130.34 831.884 1168.45 831.884 1215.46H832.884ZM916.942 1131.34V1132.34C962.813 1132.34 1000 1169.56 1000 1215.46H1001H1002C1002 1168.45 963.919 1130.34 916.942 1130.34V1131.34ZM1001 1215.46H1000V1346H1001H1002V1215.46H1001ZM999.068 1002.74H1000.07C1000.07 956.796 962.852 919.551 916.942 919.551V920.551V921.551C961.746 921.551 998.068 957.9 998.068 1002.74H999.068ZM916.942 920.551V919.551C871.032 919.551 833.816 956.796 833.816 1002.74H834.816H835.816C835.816 957.9 872.138 921.551 916.942 921.551V920.551ZM834.816 1002.74H833.816V1131.34H834.816H835.816V1002.74H834.816ZM834.816 1131.34V1132.34H999.068V1131.34V1130.34H834.816V1131.34ZM999.068 1131.34H1000.07V1002.74H999.068H998.068V1131.34H999.068ZM1001 1133.28V1132.28H832.884V1133.28V1134.28H1001V1133.28ZM832.884 1133.28H833.884V1002.74H832.884H831.884V1133.28H832.884ZM832.884 1002.74H833.884C833.884 956.831 871.071 919.617 916.942 919.617V918.617V917.617C869.965 917.617 831.884 955.728 831.884 1002.74H832.884ZM916.942 918.617V919.617C962.813 919.617 1000 956.831 1000 1002.74H1001H1002C1002 955.728 963.919 917.617 916.942 917.617V918.617ZM1001 1002.74H1000V1133.28H1001H1002V1002.74H1001ZM999.068 790.015H1000.07C1000.07 744.072 962.852 706.826 916.942 706.826V707.826V708.826C961.746 708.826 998.068 745.175 998.068 790.015H999.068ZM916.942 707.826V706.826C871.032 706.826 833.816 744.072 833.816 790.015H834.816H835.816C835.816 745.175 872.138 708.826 916.942 708.826V707.826ZM834.816 790.015H833.816V918.617H834.816H835.816V790.015H834.816ZM834.816 918.617V919.617H999.068V918.617V917.617H834.816V918.617ZM999.068 918.617H1000.07V790.015H999.068H998.068V918.617H999.068ZM1001 920.551V919.551H832.884V920.551V921.551H1001V920.551ZM832.884 920.551H833.884V790.015H832.884H831.884V920.551H832.884ZM832.884 790.015H833.884C833.884 744.107 871.071 706.892 916.942 706.892V705.892V704.892C869.965 704.892 831.884 743.004 831.884 790.015H832.884ZM916.942 705.892V706.892C962.813 706.892 1000 744.107 1000 790.015H1001H1002C1002 743.004 963.919 704.892 916.942 704.892V705.892ZM1001 790.015H1000V920.551H1001H1002V790.015H1001ZM751.242 1194.19H752.242C752.242 1181.09 741.627 1170.47 728.536 1170.47V1171.47V1172.47C740.521 1172.47 750.242 1182.2 750.242 1194.19H751.242ZM728.536 1171.47V1172.47C741.627 1172.47 752.242 1161.85 752.242 1148.75H751.242H750.242C750.242 1160.74 740.521 1170.47 728.536 1170.47V1171.47ZM751.242 1148.75H750.242C750.242 1161.85 760.856 1172.47 773.947 1172.47V1171.47V1170.47C761.962 1170.47 752.242 1160.74 752.242 1148.75H751.242ZM773.947 1171.47L773.946 1170.47C760.845 1170.48 750.242 1181.09 750.242 1194.19H751.242H752.242C752.242 1182.2 761.951 1172.48 773.948 1172.47L773.947 1171.47ZM751.242 981.467H752.242C752.242 968.368 741.627 957.744 728.536 957.744V958.744V959.744C740.521 959.744 750.242 969.472 750.242 981.467H751.242ZM728.536 958.744V959.744C741.627 959.744 752.242 949.12 752.242 936.022H751.242H750.242C750.242 948.017 740.521 957.744 728.536 957.744V958.744ZM751.242 936.022H750.242C750.242 949.12 760.856 959.744 773.947 959.744V958.744V957.744C761.962 957.744 752.242 948.017 752.242 936.022H751.242ZM773.947 958.744L773.946 957.744C760.845 957.756 750.242 968.368 750.242 981.467H751.242H752.242C752.242 969.472 761.951 959.755 773.948 959.744L773.947 958.744ZM585.058 723.297H584.058C584.058 736.396 594.673 747.02 607.763 747.02V746.02V745.02C595.779 745.02 586.058 735.293 586.058 723.297H585.058ZM607.763 746.02L607.762 745.02C594.662 745.032 584.058 755.643 584.058 768.743H585.058H586.058C586.058 756.747 595.767 747.031 607.764 747.02L607.763 746.02ZM585.058 768.743H586.058C586.058 755.644 575.443 745.02 562.353 745.02V746.02V747.02C574.337 747.02 584.058 756.747 584.058 768.743H585.058ZM562.353 746.02V747.02C575.443 747.02 586.058 736.396 586.058 723.297H585.058H584.058C584.058 735.293 574.337 745.02 562.353 745.02V746.02ZM585.058 732.884L584.137 732.495C581.744 738.163 577.206 742.704 571.543 745.099L571.932 746.02L572.322 746.941C578.464 744.343 583.384 739.42 585.979 733.273L585.058 732.884ZM571.932 746.02L571.543 746.941C577.205 749.335 581.743 753.877 584.136 759.544L585.057 759.155L585.978 758.766C583.383 752.619 578.464 747.696 572.322 745.099L571.932 746.02ZM585.057 759.155L585.978 759.543C588.371 753.876 592.91 749.336 598.577 746.942L598.187 746.021L597.798 745.1C591.652 747.697 586.731 752.618 584.136 758.766L585.057 759.155ZM598.187 746.021L598.577 745.1C592.912 742.705 588.373 738.164 585.979 732.495L585.058 732.884L584.137 733.273C586.733 739.421 591.654 744.345 597.798 746.942L598.187 746.021ZM917.425 1048.19H918.425C918.425 1035.09 907.81 1024.46 894.72 1024.46V1025.46V1026.46C906.704 1026.46 916.425 1036.19 916.425 1048.19H917.425ZM894.72 1025.46V1026.46C907.81 1026.46 918.425 1015.84 918.425 1002.74H917.425H916.425C916.425 1014.74 906.704 1024.46 894.72 1024.46V1025.46ZM917.425 1002.74H916.425C916.425 1015.84 927.04 1026.46 940.13 1026.46V1025.46V1024.46C928.146 1024.46 918.425 1014.74 918.425 1002.74H917.425ZM940.13 1025.46L940.13 1024.46C927.029 1024.47 916.425 1035.09 916.425 1048.19H917.425H918.425C918.425 1036.19 928.134 1026.47 940.131 1026.46L940.13 1025.46Z" fill="#532727" mask="url(#path-1-outside-1_720_1025)"/>
</svg>
