<svg width="20" height="20" viewBox="0 0 20 20" fill="none" xmlns="http://www.w3.org/2000/svg">
<path d="M15.8562 4.25315C15.4303 5.82784 11.598 6.22127 10.0009 6.22127C8.40372 6.22127 4.56971 5.82784 4.14381 4.25315C3.64717 2.41696 4.5404 1.00899 2.93387 0.0292541C2.78771 -0.0598819 2.60889 0.0684922 2.63672 0.228289C2.9335 1.93218 2.01428 2.84662 2.01428 3.76106C2.01428 4.6844 1.54569 7.34025 4.56513 8.07144C4.7595 8.11851 4.80102 8.37822 4.6213 8.46128L0.111213 10.5456C-0.00549761 10.5996 -0.0385531 10.7389 0.0516238 10.8261C0.840195 11.5884 2.56975 12.4208 4.47007 10.8317C4.57381 10.7449 4.7407 10.7694 4.80409 10.8847C5.86405 12.8121 7.33809 15.1758 7.33809 17.5396C7.33809 20 8.40286 20 10 20C11.5971 20 12.6619 20 12.6619 17.5396C12.6619 15.1758 14.136 12.8121 15.1959 10.8847C15.2593 10.7694 15.4262 10.7449 15.5299 10.8317C17.4302 12.4208 19.1598 11.5884 19.9484 10.8261C20.0386 10.7389 20.0055 10.5996 19.8888 10.5456L15.3787 8.46128C15.199 8.37822 15.2405 8.11851 15.4349 8.07144C18.4543 7.34025 17.9857 4.6844 17.9857 3.76106C17.9857 2.84662 17.0665 1.93218 17.3633 0.228289C17.3911 0.0684922 17.2123 -0.0598819 17.0661 0.0292541C15.4596 1.00899 16.3528 2.41696 15.8562 4.25315Z" fill="#D8C094"/>
</svg>
