<svg width="20" height="20" viewBox="0 0 20 20" fill="none" xmlns="http://www.w3.org/2000/svg">
<path d="M11.25 0.0560895C13.1249 -0.354968 13.5937 1.58991 13.5938 2.74066C15.8436 1.82025 15.7812 3.37991 15.4688 4.27484C15.9375 4.65838 16.875 5.6561 16.875 6.5766C20.6243 8.49396 20.1562 9.64441 19.6875 9.26117C17.4375 8.34069 16.5765 9.57982 15.9375 10.0278C12.1878 12.6563 11.4063 18.5924 11.25 19.9994L0 12.3295C2.99995 8.34064 6.56245 5.55347 7.96875 4.65863C7.5 4.14724 6.75 2.97053 7.5 2.35687C8.24997 1.74349 9.375 2.35715 9.84375 2.74066C9.68753 1.98269 9.75012 0.384949 11.25 0.0560895ZM14 5.99945C13.4478 5.99945 13.0002 6.44734 13 6.99945C13 7.55173 13.4477 7.99945 14 7.99945C14.5523 7.99945 15 7.55173 15 6.99945C14.9998 6.44734 14.5522 5.99945 14 5.99945Z" fill="#D8C094"/>
</svg>
