<svg width="20" height="20" viewBox="0 0 20 20" fill="none" xmlns="http://www.w3.org/2000/svg">
<path d="M18.1819 4.54844C19.7871 2.96115 20.057 0.915713 19.9911 0.0486722C19.9892 0.0234921 19.9712 0.00594505 19.946 0.00464259C19.0506 -0.0417155 16.9655 0.239543 15.4487 1.73946C13.9318 3.23939 13.6126 5.33549 13.6413 6.2389C13.6421 6.26428 13.6592 6.28274 13.6841 6.28515C14.5428 6.3683 16.5766 6.13573 18.1819 4.54844Z" fill="#D8C094"/>
<path d="M12.5714 4.664C12.5188 2.5586 11.1301 1.25646 10.4091 0.845943C10.3882 0.834021 10.3614 0.838769 10.3419 0.85781C9.64842 1.53553 8.33558 3.3211 8.38536 5.31061C8.43514 7.30013 9.82688 8.66793 10.5488 9.12702C10.5691 9.13992 10.5959 9.13638 10.6161 9.1181C11.3111 8.48886 12.6241 6.7694 12.5714 4.664Z" fill="#D8C094"/>
<path d="M15.3297 7.4987C17.4168 7.5924 18.6815 9.01709 19.0747 9.75172C19.0862 9.77306 19.0809 9.79999 19.0617 9.81926C18.3761 10.5051 16.5799 11.7939 14.6077 11.7054C12.6354 11.6168 11.3057 10.1877 10.8643 9.45124C10.8519 9.43055 10.8559 9.40357 10.8744 9.38357C11.5119 8.69522 13.2426 7.405 15.3297 7.4987Z" fill="#D8C094"/>
<path d="M8.49275 8.69712C8.44007 6.59172 7.05145 5.28958 6.33043 4.87906C6.30949 4.86714 6.28268 4.87189 6.2632 4.89093C5.56972 5.56865 4.25689 7.35421 4.30667 9.34373C4.35645 11.3333 5.74818 12.7011 6.4701 13.1601C6.49039 13.173 6.51723 13.1695 6.53741 13.1512C7.23242 12.522 8.54543 10.8025 8.49275 8.69712Z" fill="#D8C094"/>
<path d="M11.251 11.5318C13.3381 11.6255 14.6028 13.0502 14.996 13.7848C15.0075 13.8062 15.0022 13.8331 14.983 13.8524C14.2974 14.5383 12.5012 15.827 10.529 15.7385C8.55672 15.6499 7.22698 14.2208 6.78558 13.4844C6.77318 13.4637 6.77721 13.4367 6.79573 13.4167C7.43321 12.7283 9.16389 11.4381 11.251 11.5318Z" fill="#D8C094"/>
<path d="M4.18746 12.9543C4.13478 10.8489 2.74616 9.54676 2.02514 9.13624C2.0042 9.12432 1.97739 9.12907 1.95791 9.14811C1.26443 9.82583 -0.0484039 11.6114 0.00137629 13.6009C0.0511565 15.5904 1.44289 16.9582 2.16481 17.4173C2.18509 17.4302 2.21194 17.4267 2.23212 17.4084C2.92713 16.7792 4.24014 15.0597 4.18746 12.9543Z" fill="#D8C094"/>
<path d="M6.94571 15.789C9.03282 15.8827 10.2975 17.3074 10.6907 18.042C10.7022 18.0634 10.6969 18.0903 10.6777 18.1096C9.99215 18.7954 8.19591 20.0842 6.22367 19.9957C4.25143 19.9071 2.92169 18.478 2.48029 17.7415C2.46789 17.7209 2.47192 17.6939 2.49043 17.6739C3.12792 16.9855 4.85859 15.6953 6.94571 15.789Z" fill="#D8C094"/>
</svg>
