<svg width="20" height="20" viewBox="0 0 20 20" fill="none" xmlns="http://www.w3.org/2000/svg">
<path d="M4.31015 17.993C0.876875 17.849 0.00747059 15.0649 4.80732e-05 13.6731C-1.73977e-05 13.6608 0.00127857 13.6485 0.00363486 13.6364C0.989234 8.59647 4.90031 9.49719 6.85705 8.95562C8.81621 8.41338 7.83663 6.42516 9.40396 4.2562C10.9713 2.08725 14.1059 2.26805 15.2814 2.81029C16.4569 3.35253 17.4109 1.83445 17.9987 2.0152C18.5864 2.19595 20.1793 2.62955 19.9834 6.60597C19.7875 10.5824 16.261 11.8476 13.5182 12.3899C11.3544 12.8176 10.5369 14.2179 10.3894 14.8922C10.3852 14.9112 10.3793 14.9283 10.3699 14.9453C9.7647 16.0371 7.73203 18.1365 4.31015 17.993Z" fill="#D8C094"/>
</svg>
