<svg width="20" height="20" viewBox="0 0 20 20" fill="none" xmlns="http://www.w3.org/2000/svg">
<path d="M9.63488 3C13.1043 3 15.4466 4.77482 16.2482 5.72852C16.2858 5.77331 16.34 5.80015 16.3986 5.7998C17.2568 5.7927 18.8144 5.68664 19.6329 5.33203C19.7878 5.26493 20.0095 5.38041 20.0001 5.54883C19.794 9.14579 17.0759 7.25337 17.7882 8.59961C18.5236 9.98861 18.5116 9.99991 18.5294 10C19.0016 10 19.3418 10.078 19.5919 10.0986C19.76 10.1127 19.9825 10.2758 19.9425 10.4395C19.8502 10.8137 19.6519 11.3795 19.2706 12.0996C18.5294 13.4996 14.8234 13.5002 14.0821 14.2002C13.5547 14.6989 13.7711 15.9735 13.9991 16.7412C14.037 16.8685 13.9435 17 13.8107 17H12.5997C12.0357 16.9993 11.427 15.3106 11.1564 14.3428C11.1329 14.2587 11.0572 14.1996 10.9698 14.1992C9.30776 14.192 6.20764 14.0635 5.33703 13.6025C5.24694 13.5549 5.12933 13.5545 5.05969 13.6289C4.13479 14.6192 4.18095 15.9755 4.36926 16.7393C4.40104 16.8681 4.30755 16.9998 4.17492 17H3.0802C3.00891 17 2.94353 16.961 2.91125 16.8975C1.52658 14.1709 1.48378 9.58426 1.48254 8.04102C1.48239 7.95705 1.42581 7.88295 1.3468 7.85449C-0.294944 7.26298 -0.163972 5.86126 0.324336 5.31934C0.440964 5.18999 0.527839 5.34965 0.53918 5.52344C0.570784 6.00307 1.42978 6.40905 2.03137 6.48633C2.13669 6.49985 2.22148 6.41405 2.24035 6.30957C2.48964 4.91767 5.38561 3.00009 9.63488 3ZM15.0079 9C14.4555 9.00018 14.0079 9.44783 14.0079 10C14.0079 10.5522 14.4555 10.9998 15.0079 11C15.5606 11 16.0089 10.5523 16.0089 10C16.0089 9.44772 15.5606 9 15.0079 9Z" fill="#D8C094"/>
</svg>
