<svg width="20" height="20" viewBox="0 0 20 20" fill="none" xmlns="http://www.w3.org/2000/svg">
<path d="M9.63469 3C13.104 3 15.4462 5.02836 16.2478 6.1183C16.2855 6.1695 16.3397 6.20017 16.3982 6.19978C17.2564 6.19165 18.814 6.07045 19.6325 5.66518C19.7874 5.58849 20.0091 5.72046 19.9997 5.91295C19.7936 10.0238 17.0755 7.86099 17.7878 9.39955C18.5232 10.987 18.5112 10.9999 18.529 11C19.0012 11 19.3415 11.0892 19.5915 11.1127C19.7596 11.1288 19.9821 11.3152 19.9421 11.5022C19.8498 11.9299 19.6515 12.5765 19.2702 13.3996C18.529 14.9996 14.8231 15.0002 14.0819 15.8002C13.5544 16.3701 13.7708 17.8269 13.9989 18.7042C14.0367 18.8497 13.9432 19 13.8104 19H12.5995C12.0355 18.9992 11.4268 17.0693 11.1561 15.9632C11.1326 15.867 11.057 15.7995 10.9696 15.7991C9.30757 15.7908 6.20752 15.644 5.33692 15.1172C5.24683 15.0627 5.12922 15.0623 5.05958 15.1473C4.1347 16.2791 4.18086 17.8291 4.36917 18.702C4.40095 18.8492 4.30747 18.9997 4.17484 19H3.08013C3.00885 19 2.94347 18.9555 2.91119 18.8828C1.52655 15.7668 1.48375 10.5249 1.48251 8.76116C1.48236 8.6652 1.42578 8.58052 1.34677 8.54799C-0.294938 7.87197 -0.163969 6.27002 0.32433 5.65067C0.440955 5.50285 0.527828 5.68531 0.539169 5.88393C0.570773 6.43208 1.42975 6.89606 2.03133 6.98438C2.13665 6.99983 2.22143 6.90177 2.24031 6.78237C2.48959 5.19163 5.3855 3.00011 9.63469 3ZM15.0076 9.85714C14.4552 9.85735 14.0076 10.3689 14.0076 11C14.0076 11.6311 14.4552 12.1427 15.0076 12.1429C15.5602 12.1429 16.0086 11.6312 16.0086 11C16.0086 10.3688 15.5602 9.85714 15.0076 9.85714Z" fill="#D8C094"/>
</svg>
