<svg width="20" height="20" viewBox="0 0 20 20" fill="none" xmlns="http://www.w3.org/2000/svg">
<path d="M9.89648 2.24348C12.9967 -0.488229 17.5776 -0.16356 19.4805 0.34016C20.0965 2.16631 20.6699 6.6082 18.0352 9.76985C17.6774 13.3153 17.2296 14.9477 17.0508 15.3206L14.4355 12.9017C13.2208 13.3933 10.2218 14.2804 7.94434 13.8968C7.56281 16.5585 7.13958 19.074 6.97559 19.9993L4.31543 15.9241L0 13.5482C0.938988 13.3399 3.49353 12.795 6.2002 12.2835C5.68766 10.0866 6.43923 7.12088 6.87891 5.91243L4.2627 3.4925C4.63541 3.29875 6.284 2.77815 9.89648 2.24348ZM16 2.99934C15.4478 2.99934 15.0002 3.44718 15 3.99934C15 4.55162 15.4477 4.99934 16 4.99934C16.5523 4.99934 17 4.55162 17 3.99934C16.9998 3.44718 16.5522 2.99934 16 2.99934Z" fill="#D8C094"/>
</svg>
