<svg width="20" height="20" viewBox="0 0 20 20" fill="none" xmlns="http://www.w3.org/2000/svg">
<path d="M0.0818702 10.4295C-0.156163 9.64422 0.181051 9.8569 0.379412 10.0614C0.809152 10.634 2.40257 11.6809 5.33831 11.2883C9.00799 10.7975 10.8924 6.7485 12.3801 5.52152C13.8678 4.29454 15.1572 5.15342 15.7523 5.39882C16.3473 5.64422 16.3473 5.15346 17.5375 4.41727C18.7277 3.68108 19.7195 4.04918 19.9178 4.53997C20.1162 5.03076 19.9178 5.15346 19.7195 5.03076C19.5211 4.90806 19.3228 4.78536 18.926 4.78536C17.5375 4.78536 16.9424 6.13504 16.8432 6.50313C16.7441 6.87122 16.7441 7.23932 16.8432 7.85281C17.4383 11.411 11.8842 16.5643 6.9252 15.9509C1.96617 15.3374 0.379412 11.4111 0.0818702 10.4295Z" fill="#D8C094"/>
</svg>
